<?xml version="1.0" encoding="UTF-8" standalone="no"?>
<!-- Generator: Adobe Illustrator 16.0.3, SVG Export Plug-In . SVG Version: 6.00 Build 0)  -->

<svg
   xmlns:dc="http://purl.org/dc/elements/1.1/"
   xmlns:cc="http://creativecommons.org/ns#"
   xmlns:rdf="http://www.w3.org/1999/02/22-rdf-syntax-ns#"
   xmlns:svg="http://www.w3.org/2000/svg"
   xmlns="http://www.w3.org/2000/svg"
   xmlns:sodipodi="http://sodipodi.sourceforge.net/DTD/sodipodi-0.dtd"
   xmlns:inkscape="http://www.inkscape.org/namespaces/inkscape"
   version="1.1"
   id="Ebene_1"
   x="0px"
   y="0px"
   width="471.37485"
   height="174.90179"
   viewBox="0 0 471.37484 174.90178"
   enable-background="new 0 0 243.238 87.344"
   xml:space="preserve"
   inkscape:version="0.91 r13725"
   sodipodi:docname="logo.svg"><metadata
   id="metadata129"><rdf:RDF><cc:Work
       rdf:about=""><dc:format>image/svg+xml</dc:format><dc:type
         rdf:resource="http://purl.org/dc/dcmitype/StillImage" /><dc:title></dc:title></cc:Work></rdf:RDF></metadata><defs
   id="defs127" /><sodipodi:namedview
   pagecolor="#ffffff"
   bordercolor="#666666"
   borderopacity="1"
   objecttolerance="10"
   gridtolerance="10"
   guidetolerance="10"
   inkscape:pageopacity="0"
   inkscape:pageshadow="2"
   inkscape:window-width="1920"
   inkscape:window-height="1137"
   id="namedview125"
   showgrid="false"
   inkscape:zoom="3.7908026"
   inkscape:cx="202.23254"
   inkscape:cy="96.935208"
   inkscape:window-x="-8"
   inkscape:window-y="-8"
   inkscape:window-maximized="1"
   inkscape:current-layer="Ebene_1"
   fit-margin-left="20"
   fit-margin-right="20"
   fit-margin-top="10"
   fit-margin-bottom="10" />
<path
   d="m 59.541236,93.186295 c 0,2.09269 -0.42208,3.92113 -1.24674,5.4871 -0.81757,1.551795 -1.95259,2.867695 -3.40861,3.935335 -1.46134,1.05522 -3.15145,1.86392 -5.07034,2.41014 -1.90471,0.55509 -3.942422,0.83176 -6.095413,0.83176 l -23.720133,0 0,-49.102022 26.268606,0 c 1.7114,0 3.25609,0.37243 4.62698,1.10842 1.37976,0.739536 2.55734,1.702527 3.52033,2.881884 0.97718,1.163396 1.73091,2.50059 2.27182,3.990303 0.53381,1.495034 0.80338,3.013122 0.80338,4.543624 0,2.383543 -0.60298,4.634074 -1.80007,6.733861 -1.20596,2.10688 -2.95815,3.663984 -5.26543,4.655355 2.80563,0.83175 5.02246,2.33388 6.6505,4.48865 1.64224,2.14766 2.46512,4.82916 2.46512,8.03559 l 0,0 z m -9.61396,-1.80007 c 0,-0.86724 -0.15252,-1.69721 -0.44337,-2.4935 -0.29794,-0.81226 -0.70761,-1.51101 -1.22015,-2.10688 -0.49834,-0.60299 -1.10132,-1.08714 -1.80184,-1.44006 -0.684559,-0.34759 -1.447152,-0.52671 -2.271813,-0.52671 l -14.657714,0 0,12.94099 14.187744,0 c 0.865453,0 1.675927,-0.15252 2.438523,-0.47352 0.76791,-0.3263 1.44005,-0.78211 1.99515,-1.35849 0.54623,-0.5675 0.9825,-1.24675 1.30172,-2.02176 0.31214,-0.78919 0.47175,-1.63335 0.47175,-2.52008 l 0,0 z m -20.394887,-26.492077 0,12.387676 12.71754,0 c 1.62272,0 3.000707,-0.555096 4.130407,-1.663515 1.12083,-1.101323 1.69011,-2.617637 1.69011,-4.543624 0,-1.899385 -0.51962,-3.408606 -1.55178,-4.517025 -1.039253,-1.10132 -2.32147,-1.663512 -3.851973,-1.663512 l -13.134304,0 z m 0,0"
   id="path3"
   inkscape:connector-curvature="0"
   style="fill:#c0273c;fill-opacity:1" />
<path
   d="m 61.183476,105.85063 19.36982,-49.102022 7.73054,0 19.314844,49.102012 -10.114084,0 -4.48865,-12.247555 -17.20796,0 -4.51703,12.247555 -10.08748,0 z m 23.25017,-38.794626 -7.06728,19.841561 13.91108,0 -6.8438,-19.841561 z m 0,0"
   id="path5"
   inkscape:connector-curvature="0"
   style="fill:#c0273c;fill-opacity:1" />
<path
   d="m 112.96698,105.85063 0,-49.102022 21.69837,0 c 2.26471,0 4.35741,0.477062 6.26213,1.411681 1.91888,0.943487 3.57529,2.197329 4.96038,3.742019 1.37799,1.537596 2.4669,3.289782 3.2419,5.265425 0.78918,1.959683 1.19177,3.926459 1.19177,5.902103 0,3.179828 -0.81047,6.074129 -2.41015,8.672259 -1.59435,2.60522 -3.74911,4.49574 -6.45719,5.65381 l 11.55592,18.454715 -10.78091,0 -10.3074,-16.459575 -9.42244,0 0,16.459575 -9.53238,0 z m 9.53238,-24.828565 11.9709,0 c 0.86723,0 1.6777,-0.2004 2.43854,-0.610073 0.76968,-0.422083 1.44181,-0.982501 1.99513,-1.690114 0.54802,-0.712933 0.98428,-1.558878 1.3035,-2.521872 0.32457,-0.977181 0.49836,-2.021753 0.49836,-3.13017 0,-1.158075 -0.18622,-2.223929 -0.55332,-3.186924 -0.37421,-0.955896 -0.87433,-1.801843 -1.4968,-2.521871 -0.63137,-0.712934 -1.35141,-1.275123 -2.16188,-1.663513 -0.79628,-0.379521 -1.61384,-0.581696 -2.43851,-0.581696 l -11.55592,0 0,15.906233 z m 0,0"
   id="path7"
   inkscape:connector-curvature="0"
   style="fill:#c0273c;fill-opacity:1" />
<path
   d="m 195.23283,65.115832 -15.62779,0 0,40.734788 -9.5324,0 0,-40.734788 -15.71292,0 0,-8.367224 40.87311,0 0,8.367224 z m 0,0"
   id="path9"
   inkscape:connector-curvature="0"
   style="fill:#c0273c;fill-opacity:1" />
<path
   d="m 220.30435,106.18403 c -3.45648,0 -6.61503,-0.70228 -9.47742,-2.10689 -2.86771,-1.39926 -5.32749,-3.27026 -7.37052,-5.597045 -2.05013,-2.32148 -3.63738,-4.98877 -4.73872,-7.98062 -1.10841,-2.98653 -1.66174,-6.05461 -1.66174,-9.20075 0,-3.263177 0.5888,-6.400443 1.77347,-9.394058 1.17759,-3.006028 2.81096,-5.659136 4.90362,-7.952231 2.0998,-2.307283 4.57912,-4.14282 7.4273,-5.513713 2.8606,-1.365569 5.98547,-2.051901 9.36569,-2.051901 3.44938,0 6.60261,0.734216 9.44905,2.190232 2.86059,1.461339 5.3062,3.366042 7.34392,5.708794 2.03061,2.348072 3.60192,5.02778 4.71033,8.035584 1.10134,2.991841 1.66351,6.033338 1.66351,9.115623 0,3.27028 -0.59588,6.39513 -1.77347,9.36746 -1.18467,2.97766 -2.81272,5.61127 -4.87704,7.89726 -2.07138,2.271825 -4.5383,4.094945 -7.39891,5.458735 -2.86947,1.35138 -5.98012,2.02353 -9.33907,2.02353 l 0,0 z M 206.66994,81.298725 c 0,2.12639 0.31212,4.1783 0.94346,6.15216 0.6225,1.98097 1.52342,3.73316 2.68681,5.26542 1.17758,1.51632 2.61942,2.73646 4.32372,3.65867 1.71141,0.92753 3.65867,1.38685 5.81873,1.38685 2.20975,0 4.16412,-0.47352 5.84713,-1.41345 1.67594,-0.93639 3.08941,-2.19732 4.24037,-3.77039 1.15632,-1.5642 2.03595,-3.33059 2.63184,-5.29202 0.60298,-1.9526 0.91509,-3.94775 0.91509,-5.98546 0,-2.119299 -0.32631,-4.169427 -0.97006,-6.150393 -0.65088,-1.989832 -1.56599,-3.749109 -2.74358,-5.265426 -1.16338,-1.510995 -2.59811,-2.722272 -4.29533,-3.630289 -1.68303,-0.900921 -3.5824,-1.358475 -5.68041,-1.358475 -2.21684,0 -4.1712,0.48593 -5.84713,1.441829 -1.68302,0.94171 -3.11775,2.195553 -4.29534,3.740244 -1.18468,1.537596 -2.0856,3.284462 -2.68858,5.237049 -0.59589,1.959684 -0.88672,3.954836 -0.88672,5.983681 l 0,0 z m 0,0"
   id="path11"
   inkscape:connector-curvature="0"
   style="fill:#c0273c;fill-opacity:1" />
<path
   d="m 248.30564,80.938715 c 0,-2.984749 0.5267,-5.942894 1.58016,-8.867341 1.06762,-2.92977 2.60522,-5.549181 4.60036,-7.842276 2.00934,-2.307282 4.46917,-4.169423 7.37054,-5.597067 2.89609,-1.434735 6.22134,-2.161857 9.97576,-2.161857 4.37161,0 8.1615,1.005558 11.36082,2.993613 3.20823,1.980965 5.57759,4.557816 7.09388,7.730549 l -7.34392,5.043744 c -0.5551,-1.377986 -1.26804,-2.550248 -2.13348,-3.491959 -0.87254,-0.934619 -1.83554,-1.690117 -2.88189,-2.243438 -1.03925,-0.548001 -2.11221,-0.957674 -3.2153,-1.220146 -1.10841,-0.257152 -2.16894,-0.388389 -3.15854,-0.388389 -2.27182,0 -4.25987,0.493024 -5.95709,1.468431 -1.70429,0.962993 -3.12484,2.223929 -4.26695,3.768619 -1.12971,1.539371 -1.98097,3.291558 -2.55026,5.265427 -0.57457,1.961456 -0.85835,3.899857 -0.85835,5.81875 0,2.18314 0.33342,4.28114 0.99846,6.29049 0.65796,1.99515 1.60677,3.76152 2.82689,5.29203 1.21307,1.51632 2.6744,2.73825 4.37871,3.65865 1.71139,0.90803 3.58772,1.35848 5.62545,1.35848 1.04635,0 2.13347,-0.1242 3.24189,-0.38837 1.10132,-0.26958 2.17605,-0.70408 3.2153,-1.29997 1.04636,-0.60475 2.00934,-1.38684 2.88188,-2.32856 0.86545,-0.9559 1.58016,-2.10687 2.13348,-3.43521 l 7.81392,4.48864 c -0.74132,1.84974 -1.81424,3.47779 -3.21531,4.87703 -1.40637,1.406385 -3.00604,2.598165 -4.79368,3.577115 -1.79477,0.96122 -3.69235,1.70253 -5.68041,2.21684 -1.98098,0.48949 -3.94242,0.74662 -5.8755,0.74662 -3.42281,0 -6.55299,-0.73421 -9.39406,-2.21683 -2.82693,-1.47552 -5.27252,-3.39443 -7.31556,-5.763785 -2.05015,-2.37466 -3.64449,-5.07743 -4.7671,-8.09056 -1.12968,-3.03086 -1.6901,-6.11314 -1.6901,-9.25927 l 0,0 z m 0,0"
   id="path13"
   inkscape:connector-curvature="0"
   style="fill:#c0273c;fill-opacity:1" />
<rect
   x="296.47302"
   y="95.903244"
   width="7.6205926"
   height="9.9456081"
   id="rect15" />
<path
   d="m 329.01971,106.54407 c -2.93685,0 -5.58995,-0.51254 -7.95222,-1.5252 -2.34807,-1.01088 -4.34324,-2.38176 -5.98548,-4.10202 -1.62803,-1.732695 -2.88897,-3.727845 -3.76861,-5.985455 -0.87254,-2.26476 -1.3017,-4.64119 -1.3017,-7.12228 0,-2.54137 0.42916,-4.94619 1.3017,-7.203814 0.87964,-2.252305 2.14058,-4.247454 3.76861,-5.985456 1.64224,-1.732677 3.63741,-3.103567 5.98548,-4.10203 2.36227,-1.010878 5.01537,-1.52341 7.95222,-1.52341 2.95105,0 5.59706,0.512532 7.92562,1.52341 2.32148,0.998463 4.30243,2.369353 5.93048,4.10203 1.64224,1.738002 2.89609,3.733151 3.76863,5.985456 0.87964,2.257624 1.33011,4.662454 1.33011,7.203814 0,2.48109 -0.45047,4.85578 -1.33011,7.12228 -0.87254,2.25761 -2.11221,4.25276 -3.71365,5.985455 -1.60675,1.72026 -3.59481,3.08938 -5.95706,4.10202 -2.34988,1.01266 -5.00297,1.5252 -7.95402,1.5252 l 0,0 z m -9.47742,-18.733165 c 0,1.60676 0.23587,3.06986 0.72004,4.37868 0.49125,1.31592 1.17048,2.46157 2.02353,3.437 0.84593,0.96299 1.84262,1.7114 2.99361,2.2452 1.15629,0.51962 2.41017,0.77677 3.74024,0.77677 1.3443,0 2.59104,-0.25892 3.74024,-0.77677 1.1439,-0.53381 2.14057,-1.28222 2.99362,-2.2452 0.86545,-0.97541 1.53759,-2.13348 2.02352,-3.46358 0.47885,-1.34428 0.72003,-2.82514 0.72003,-4.43368 0,-1.56598 -0.24297,-3.02022 -0.72003,-4.35032 -0.48416,-1.34429 -1.15629,-2.50059 -2.02352,-3.463582 -0.85128,-0.9559 -1.84972,-1.704303 -2.99362,-2.245211 -1.1492,-0.53204 -2.39772,-0.803381 -3.74024,-0.803381 -1.33007,0 -2.58395,0.283756 -3.74024,0.831757 -1.14921,0.555095 -2.14768,1.323006 -2.99361,2.300188 -0.85126,0.962989 -1.53051,2.119289 -2.02353,3.463579 -0.48417,1.32832 -0.72004,2.78258 -0.72004,4.34855 l 0,0 z m 0,0"
   id="path17"
   inkscape:connector-curvature="0" />
<path
   d="m 375.75236,77.641836 c -2.82691,0.04079 -5.35588,0.574603 -7.5656,1.606764 -2.20265,1.039252 -3.78992,2.598125 -4.76708,4.683725 l 0,21.918295 -9.25572,0 0,-36.244369 8.5073,0 0,7.758925 c 1.23258,-2.488176 2.85351,-4.497516 4.84866,-6.01383 2.00936,-1.530502 4.12866,-2.300189 6.34548,-2.300189 0.51254,0 0.89384,0.02129 1.1368,0.05498 0.25715,0.02129 0.50544,0.04966 0.7484,0.08337 l 0,8.45235 z m 0,0"
   id="path19"
   inkscape:connector-curvature="0" />
<path
   d="m 395.15767,106.04392 c -2.38355,0 -4.58619,-0.47881 -6.59554,-1.44181 -2.01643,-0.95591 -3.73315,-2.27892 -5.15369,-3.96016 -1.42764,-1.698985 -2.53606,-3.646245 -3.32527,-5.847125 -0.77679,-2.21151 -1.16338,-4.57377 -1.16338,-7.06727 0,-2.61765 0.41499,-5.05617 1.24675,-7.315563 0.82466,-2.264718 1.97388,-4.252775 3.43697,-5.957078 1.47553,-1.711398 3.24192,-3.055685 5.29204,-4.018678 2.06431,-0.9559 4.33613,-1.440057 6.81721,-1.440057 2.8606,0 5.35584,0.643769 7.48226,1.911799 2.1193,1.260937 3.85198,2.951051 5.18206,5.070345 l 0,-6.372072 8.09234,0 0,34.525869 c 0,2.65312 -0.50544,5.05084 -1.4968,7.17723 -0.98427,2.1193 -2.37646,3.92116 -4.1836,5.40376 -1.79476,1.47555 -3.91405,2.60523 -6.34547,3.38023 -2.43854,0.79097 -5.12001,1.19178 -8.03559,1.19178 -4.01158,0 -7.36343,-0.67214 -10.05912,-1.99515 -2.70099,-1.31591 -5.02247,-3.16566 -6.95552,-5.5421 l 5.07033,-4.932 c 1.36558,1.7114 3.10355,3.05744 5.21045,4.02045 2.09978,0.9754 4.35031,1.46843 6.73386,1.46843 1.43473,0 2.81272,-0.20928 4.12863,-0.61184 1.30881,-0.38837 2.45271,-1.00378 3.43698,-1.82668 0.99136,-0.83352 1.78055,-1.89939 2.35518,-3.18868 0.58876,-1.29464 0.88671,-2.81273 0.88671,-4.54541 l 0,-4.572005 c -1.20596,2.071415 -2.89606,3.671095 -5.07034,4.793675 -2.16717,1.12971 -4.50106,1.69011 -6.98745,1.69011 l 0,0 z m 3.18513,-7.397125 c 1.0109,0 1.98098,-0.15254 2.91026,-0.47352 0.92222,-0.32631 1.75929,-0.76259 2.52187,-1.29994 0.75551,-0.54979 1.42766,-1.20066 2.02355,-1.94195 0.60295,-0.73423 1.08004,-1.52343 1.41343,-2.35519 l 0,-8.64564 c -0.83175,-2.12107 -2.12638,-3.832465 -3.88034,-5.127097 -1.75929,-1.28931 -3.609,-1.940174 -5.54209,-1.940174 -1.42764,0 -2.72936,0.319223 -3.90694,0.943484 -1.16338,0.629581 -2.16895,1.461339 -2.99361,2.493496 -0.83176,1.039251 -1.47555,2.231021 -1.91181,3.573541 -0.44336,1.3301 -0.66505,2.70986 -0.66505,4.13041 0,1.48083 0.25006,2.8677 0.7484,4.15522 0.51253,1.29464 1.22547,2.43143 2.13349,3.4086 0.90091,0.963 1.96679,1.72561 3.18691,2.27183 1.21307,0.54267 2.53605,0.80693 3.96193,0.80693 l 0,0 z m 0,0"
   id="path21"
   inkscape:connector-curvature="0" />
<path
   d="m 28.315789,117.21147 c 0,0.40259 -0.0745,0.76792 -0.237644,1.09245 -0.177346,0.3334 -0.393709,0.60475 -0.684557,0.83708 -0.278436,0.22523 -0.604752,0.37241 -0.986048,0.49657 -0.38839,0.1295 -0.77678,0.19154 -1.214827,0.19154 l -4.825606,0 0,-10.14071 5.229957,0 c 0.338732,0 0.65441,0.0851 0.931072,0.20751 0.305035,0.16492 0.548,0.35292 0.748402,0.5817 0.193306,0.27666 0.347599,0.5551 0.45578,0.86013 0.106415,0.29085 0.170254,0.59589 0.170254,0.90448 0,0.51076 -0.13832,0.9949 -0.368882,1.41344 -0.257152,0.44693 -0.62426,0.75727 -1.096002,0.96831 0.595884,0.17204 1.053439,0.48239 1.386851,0.93462 0.326318,0.45401 0.49125,0.99847 0.49125,1.65288 l 0,0 z m -1.624495,-0.32279 c 0,-0.18445 -0.03902,-0.38839 -0.109934,-0.55508 -0.06562,-0.21459 -0.166708,-0.36181 -0.290849,-0.51077 -0.120599,-0.14721 -0.276663,-0.2536 -0.455783,-0.34936 -0.168479,-0.10469 -0.354692,-0.15429 -0.528495,-0.15429 l -3.323478,0 0,3.12131 3.211752,0 c 0.214589,0 0.416766,-0.039 0.602981,-0.13651 0.180892,-0.0887 0.333411,-0.20571 0.464648,-0.31923 0.12415,-0.14543 0.235871,-0.27668 0.29262,-0.48416 0.09044,-0.1738 0.136549,-0.40789 0.136549,-0.61184 l 0,0 z m -4.708558,-5.81165 0,2.9564 2.920902,0 c 0.195082,0 0.381295,-0.0372 0.549774,-0.0993 0.179121,-0.0621 0.326319,-0.1738 0.436276,-0.30326 0.125925,-0.10818 0.235871,-0.27843 0.290849,-0.44514 0.09044,-0.20216 0.140105,-0.39016 0.140105,-0.63668 0,-0.41143 -0.145434,-0.76614 -0.375975,-1.04635 -0.257155,-0.30858 -0.569283,-0.42564 -0.950579,-0.42564 l -3.011349,0 z m 0,0"
   id="path23"
   inkscape:connector-curvature="0" />
<path
   d="m 31.46015,119.9568 c -0.368882,0 -0.709386,-0.0691 -1.014425,-0.15252 -0.292621,-0.14543 -0.567509,-0.32454 -0.805153,-0.51431 -0.202178,-0.1933 -0.374202,-0.47174 -0.519629,-0.74841 -0.131228,-0.28197 -0.182665,-0.59765 -0.182665,-0.92752 0,-0.34051 0.06562,-0.65441 0.211042,-0.93105 0.157841,-0.31393 0.386617,-0.56754 0.665049,-0.75021 0.292624,-0.23408 0.618943,-0.38128 1.005558,-0.51077 0.377749,-0.10118 0.790966,-0.15427 1.250294,-0.15427 0.361788,0 0.709388,0.0426 1.0428,0.0711 0.338733,0.0762 0.672144,0.17204 0.948805,0.2749 l 0,-0.54093 c 0,-0.52138 -0.159609,-0.96473 -0.46465,-1.27688 -0.319222,-0.30681 -0.782098,-0.48416 -1.360248,-0.48416 -0.400804,0 -0.810475,0.0904 -1.205958,0.24829 -0.368882,0.12592 -0.764366,0.36711 -1.158074,0.63846 l -0.493025,-0.98606 c 0.95058,-0.66326 1.963229,-0.99846 3.004254,-0.99846 1.019745,0 1.803619,0.29617 2.3729,0.80337 0.583472,0.53384 0.867228,1.27159 0.867228,2.24878 l 0,2.69211 c 0,0.16848 0.0337,0.31391 0.09044,0.40258 0.06915,0.0745 0.179123,0.0906 0.347602,0.0993 l 0,1.37089 c -0.14719,0.002 -0.28553,0.016 -0.411444,0.016 -0.131228,0.0149 -0.262474,0.0286 -0.344053,0.0286 -0.294395,-0.0214 -0.533816,-0.0691 -0.695198,-0.23586 -0.147207,-0.15786 -0.262475,-0.33342 -0.294398,-0.55512 l -0.0266,-0.48237 c -0.3476,0.45577 -0.782098,0.79629 -1.269802,1.01087 -0.480611,0.22168 -1.000236,0.34405 -1.560651,0.34405 l 0,0 z m 0.429178,-1.16872 c 0.363562,0 0.714706,-0.0372 1.04812,-0.18801 0.340506,-0.15074 0.631353,-0.34759 0.831757,-0.58346 0.193307,-0.18266 0.290848,-0.33339 0.290848,-0.54268 l 0,-0.98604 c -0.266019,-0.11705 -0.560416,-0.1809 -0.867226,-0.23587 -0.290849,-0.048 -0.595885,-0.0834 -0.865453,-0.0834 -0.569283,0 -1.028611,0.14542 -1.38685,0.37597 -0.347601,0.2217 -0.5214,0.53382 -0.5214,0.92755 0,0.39015 0.12415,0.70228 0.402577,0.9683 0.269567,0.23943 0.624261,0.34761 1.067627,0.34761 l 0,0 z m 0,0"
   id="path25"
   inkscape:connector-curvature="0" />
<path
   d="m 40.049054,119.9568 c -0.313904,0 -0.626034,-0.0354 -0.93107,-0.0834 -0.296169,-0.039 -0.610072,-0.085 -0.895602,-0.18091 -0.290848,-0.10456 -0.595886,-0.21279 -0.867225,-0.32096 -0.266021,-0.14365 -0.505437,-0.26957 -0.721802,-0.45579 l 0.666824,-1.07119 c 0.909789,0.63846 1.824898,0.95767 2.731141,0.95767 0.459328,0 0.833532,-0.0548 1.111964,-0.26247 0.273114,-0.16138 0.430954,-0.44337 0.430954,-0.77678 0,-0.30326 -0.159611,-0.52673 -0.485931,-0.69343 -0.312131,-0.11704 -0.805155,-0.29794 -1.479071,-0.44336 -0.457557,-0.12592 -0.860132,-0.25715 -1.18645,-0.3476 -0.333413,-0.12408 -0.615395,-0.26603 -0.81757,-0.40436 -0.193308,-0.15784 -0.3476,-0.31744 -0.450461,-0.53914 -0.08868,-0.19508 -0.143648,-0.43094 -0.143648,-0.71291 0,-0.37598 0.07803,-0.71826 0.227004,-1.02685 0.159609,-0.30504 0.368883,-0.54978 0.611847,-0.7289 0.269568,-0.23763 0.574602,-0.37774 0.923978,-0.48415 0.361786,-0.10638 0.743082,-0.16849 1.158073,-0.16849 0.540907,0 1.067628,0.0993 1.560651,0.2749 0.507212,0.14897 0.964769,0.40788 1.360252,0.69698 l -0.666824,0.95588 c -0.714709,-0.54622 -1.463111,-0.83173 -2.282453,-0.83173 -0.388391,0 -0.734218,0.10288 -1.012652,0.28551 -0.276661,0.16494 -0.413218,0.42032 -0.413218,0.78034 0,0.1667 0.01233,0.27132 0.06561,0.37773 0.07095,0.10819 0.161387,0.21104 0.292623,0.26249 0.145436,0.0957 0.310357,0.1791 0.503665,0.24827 0.203949,0.0531 0.48061,0.0906 0.79274,0.1809 0.507211,0.13137 0.939938,0.23056 1.307046,0.37773 0.379523,0.12779 0.677465,0.25008 0.922205,0.42744 0.248284,0.14721 0.436272,0.36886 0.546228,0.58168 0.104633,0.227 0.173798,0.49835 0.173798,0.80516 0,0.36888 -0.09044,0.68633 -0.228776,0.95944 -0.133005,0.2749 -0.333412,0.54092 -0.583471,0.74662 -0.276663,0.18268 -0.595887,0.36179 -0.977183,0.48417 -0.388388,0.0675 -0.792738,0.1295 -1.2432,0.1295 l 0,0 z m 0,0"
   id="path27"
   inkscape:connector-curvature="0" />
<path
   d="m 47.561466,119.9568 c -0.59766,0 -1.12438,-0.11703 -1.617402,-0.29086 -0.457556,-0.19331 -0.872549,-0.51251 -1.213054,-0.86014 -0.333411,-0.35469 -0.590565,-0.74309 -0.783872,-1.22014 -0.186216,-0.47175 -0.274888,-0.94347 -0.274888,-1.49858 0,-0.48592 0.08689,-0.99313 0.274888,-1.4578 0.193307,-0.46463 0.450461,-0.89381 0.783872,-1.25914 0.340505,-0.36356 0.753725,-0.64023 1.213054,-0.82291 0.493022,-0.21281 1.017972,-0.33163 1.617402,-0.33163 0.58347,0 1.1031,0.12419 1.56065,0.33341 0.47352,0.20573 0.88141,0.47707 1.21483,0.81934 0.3405,0.34407 0.61007,0.76083 0.77678,1.23079 0.18266,0.43806 0.26424,0.93639 0.26424,1.41345 0,0.12065 -0.0141,0.24652 -0.0266,0.3494 0,0.0691 -0.0141,0.1667 -0.0284,0.23587 l -5.9624,0 c 0.03546,0.34758 0.09932,0.65264 0.214587,0.90267 0.140106,0.25894 0.305038,0.51965 0.507213,0.69699 0.19508,0.20394 0.44514,0.33162 0.70939,0.45577 0.26424,0.11179 0.52672,0.1347 0.82466,0.1347 0.21459,0 0.40967,-0.002 0.61185,-0.0498 0.1933,-0.0498 0.38129,-0.13827 0.548,-0.2518 0.18089,-0.0639 0.33341,-0.20752 0.46465,-0.37244 0.14543,-0.12063 0.24296,-0.30149 0.32454,-0.44693 l 1.34606,0.40259 c -0.27666,0.54978 -0.70052,1.02685 -1.2964,1.38686 -0.58347,0.34759 -1.26981,0.50012 -2.05368,0.50012 l 0,0 z m 2.25585,-4.42658 c -0.0426,-0.30504 -0.10996,-0.59056 -0.25183,-0.88674 -0.11706,-0.26956 -0.27666,-0.48593 -0.46997,-0.69341 -0.2004,-0.1614 -0.43273,-0.31923 -0.7218,-0.39193 -0.25715,-0.12421 -0.54091,-0.18978 -0.81225,-0.18978 -0.29262,0 -0.58879,0.0657 -0.83885,0.18978 -0.27666,0.0727 -0.50189,0.23053 -0.695201,0.39193 -0.200402,0.20572 -0.367106,0.42208 -0.49125,0.69341 -0.129465,0.29618 -0.193309,0.5817 -0.228777,0.88674 l 4.509928,0 z m 0,0"
   id="path29"
   inkscape:connector-curvature="0" />
<path
   d="m 52.337416,109.42595 1.58016,0 0,8.18811 c 0,0.27488 0.0692,0.48413 0.20217,0.66505 0.13832,0.16315 0.35115,0.20748 0.62781,0.20748 0.0851,0 0.19508,-0.0149 0.3476,-0.0372 0.13832,-0.0149 0.27844,-0.0603 0.40967,-0.11359 l 0.22701,1.2503 c -0.24119,0.10999 -0.50544,0.20394 -0.81048,0.25005 -0.33341,0.0531 -0.61007,0.0957 -0.85303,0.0957 -0.53382,0 -0.97896,-0.12421 -1.284,-0.4487 -0.29262,-0.29262 -0.44691,-0.69696 -0.44691,-1.25738 l 0,-8.79994 z m 0,0"
   id="path31"
   inkscape:connector-curvature="0" />
<path
   d="m 59.688436,119.83088 0,-10.14069 4.42126,0 c 0.45046,0 0.87432,0.0851 1.24852,0.29084 0.3813,0.16671 0.70762,0.44339 1.00556,0.74841 0.26957,0.31213 0.49125,0.67568 0.63845,1.07118 0.15784,0.38662 0.23764,0.75017 0.23764,1.16517 0,0.34582 -0.0443,0.67924 -0.14896,0.98604 -0.0887,0.33873 -0.22169,0.63492 -0.3813,0.88852 -0.16671,0.25536 -0.38129,0.4806 -0.62958,0.69164 -0.23765,0.18266 -0.52672,0.33874 -0.81225,0.43096 l 2.40127,3.86971 -1.81425,0 -2.23103,-3.5221 -2.31792,0 0,3.5221 -1.6174,0 z m 1.6174,-4.9391 2.77548,0 c 0.21636,0 0.42209,-0.0513 0.61185,-0.16495 0.19331,-0.0993 0.36002,-0.22168 0.49125,-0.42917 0.14544,-0.16139 0.23587,-0.36178 0.31213,-0.58346 0.0692,-0.21637 0.11705,-0.47174 0.11705,-0.74841 0,-0.23055 -0.0603,-0.4611 -0.14544,-0.72005 -0.0975,-0.21812 -0.20749,-0.39903 -0.3476,-0.58347 -0.14364,-0.16316 -0.32454,-0.32099 -0.51785,-0.43095 -0.18799,-0.0691 -0.38839,-0.12593 -0.60298,-0.12593 l -2.69213,0 0,3.78636 z m 0,0"
   id="path33"
   inkscape:connector-curvature="0" />
<path
   d="m 72.095616,119.9568 c -0.58346,0 -1.12438,-0.11703 -1.59789,-0.29086 -0.47884,-0.19331 -0.87432,-0.51251 -1.21482,-0.86014 -0.33342,-0.35469 -0.61007,-0.74309 -0.80338,-1.22014 -0.18799,-0.47175 -0.26425,-0.94347 -0.26425,-1.49858 0,-0.48592 0.0762,-0.99313 0.26425,-1.4578 0.19331,-0.46463 0.46996,-0.89381 0.80338,-1.25914 0.3405,-0.36356 0.73777,-0.64023 1.21482,-0.82291 0.47351,-0.21281 1.01443,-0.33163 1.59789,-0.33163 0.5817,0 1.10134,0.12419 1.55889,0.33341 0.49301,0.20573 0.88318,0.47707 1.21482,0.81934 0.34051,0.34407 0.60831,0.76083 0.77678,1.23079 0.18089,0.43806 0.26425,0.93639 0.26425,1.41345 0,0.12065 -0.006,0.24652 -0.006,0.3494 0,0.0691 -0.0142,0.1667 -0.0266,0.23587 l -5.98014,0 c 0.0337,0.34758 0.11527,0.65264 0.22878,0.90267 0.12415,0.25894 0.29085,0.51965 0.49125,0.69699 0.21459,0.20394 0.44336,0.33162 0.72181,0.45577 0.25005,0.11179 0.5338,0.1347 0.81224,0.1347 0.21636,0 0.42918,-0.002 0.62958,-0.0498 0.17558,-0.0498 0.36356,-0.13827 0.52849,-0.2518 0.17913,-0.0639 0.33873,-0.20752 0.48416,-0.37244 0.12415,-0.12063 0.22168,-0.30149 0.31923,-0.44693 l 1.33188,0.40259 c -0.25716,0.54978 -0.7023,1.02685 -1.27868,1.38686 -0.6012,0.34759 -1.28754,0.50012 -2.06964,0.50012 l 0,0 z m 2.25231,-4.42658 c -0.0214,-0.30504 -0.11173,-0.59056 -0.23586,-0.88674 -0.11883,-0.26956 -0.28909,-0.48593 -0.46821,-0.69341 -0.20039,-0.1614 -0.44869,-0.31923 -0.72002,-0.39193 -0.27667,-0.12421 -0.54091,-0.18978 -0.82999,-0.18978 -0.29261,0 -0.57105,0.0657 -0.84239,0.18978 -0.25716,0.0727 -0.49834,0.23053 -0.69343,0.39193 -0.20039,0.20572 -0.36888,0.42208 -0.49302,0.69341 -0.10994,0.29618 -0.19332,0.5817 -0.22701,0.88674 l 4.50993,0 z m 0,0"
   id="path35"
   inkscape:connector-curvature="0" />
<path
   d="m 79.849226,119.87343 c -0.51253,0 -0.99137,-0.0691 -1.38686,-0.28906 -0.42208,-0.19686 -0.78209,-0.4753 -1.0694,-0.8211 -0.29085,-0.36181 -0.53203,-0.7768 -0.69341,-1.23257 -0.16671,-0.4682 -0.25539,-0.93107 -0.25539,-1.44361 0,-0.51962 0.0886,-1.04812 0.25539,-1.48615 0.1596,-0.49127 0.40256,-0.91514 0.69341,-1.26095 0.30682,-0.34052 0.67392,-0.61184 1.09779,-0.79274 0.41499,-0.21282 0.88141,-0.33164 1.39749,-0.33164 0.61362,0 1.14743,0.15961 1.58726,0.43096 0.45045,0.27488 0.83174,0.65262 1.12437,1.12437 l 0,-1.41699 1.38685,0 0,7.23042 c 0,0.55864 -0.11168,1.01797 -0.29262,1.44182 -0.2004,0.43627 -0.49835,0.78919 -0.85659,1.07117 -0.35114,0.28198 -0.77855,0.51075 -1.25207,0.66505 -0.48238,0.15785 -1.00554,0.2075 -1.56064,0.2075 -0.84063,0 -1.54115,-0.11876 -2.08206,-0.38838 -0.53381,-0.31922 -0.99847,-0.67571 -1.36026,-1.18113 l 0.86901,-0.82998 c 0.28375,0.39548 0.66505,0.69165 1.1031,0.91332 0.45046,0.1933 0.93638,0.31925 1.47199,0.31925 0.30502,0 0.59765,-0.048 0.89381,-0.13652 0.28376,-0.0957 0.53381,-0.20218 0.75728,-0.40435 0.23409,-0.16671 0.40612,-0.39548 0.51962,-0.69165 0.12593,-0.2802 0.20218,-0.60653 0.20218,-0.98604 l 0,-1.13678 c -0.25716,0.46109 -0.62781,0.8211 -1.09778,1.05342 -0.45933,0.27312 -0.94526,0.37244 -1.45247,0.37244 l 0,0 z m 0.49302,-1.24851 c 0.23588,0 0.47352,-0.0409 0.69343,-0.13829 0.21636,-0.0516 0.41144,-0.16848 0.58347,-0.31924 0.19331,-0.11876 0.36178,-0.2997 0.5143,-0.44514 0.12415,-0.20038 0.20751,-0.3742 0.26426,-0.5941 l 0,-1.94373 c -0.18799,-0.49124 -0.48062,-0.88672 -0.8956,-1.17935 -0.39904,-0.28375 -0.81758,-0.41498 -1.26981,-0.41498 -0.34405,0 -0.65974,0.048 -0.9293,0.20749 -0.27665,0.13829 -0.50012,0.35291 -0.6952,0.58169 -0.1862,0.25007 -0.32632,0.52849 -0.43096,0.83354 -0.0904,0.29085 -0.14543,0.59763 -0.14543,0.9027 0,0.34581 0.0621,0.67391 0.17381,0.95767 0.12237,0.32808 0.28376,0.58878 0.46996,0.80337 0.21105,0.21989 0.46642,0.40788 0.74486,0.56574 0.28908,0.1136 0.5888,0.18266 0.9222,0.18266 l 0,0 z m 0,0"
   id="path37"
   inkscape:connector-curvature="0" />
<path
   d="m 85.504816,119.83088 0,-7.47693 1.55887,0 0,7.47693 -1.55887,0 z m 0,-8.70062 0,-1.70607 1.55887,0 0,1.70607 -1.55887,0 z m 0,0"
   id="path39"
   inkscape:connector-curvature="0" />
<path
   d="m 91.602006,119.9568 c -0.31213,0 -0.62781,-0.0354 -0.94881,-0.0834 -0.29262,-0.039 -0.59057,-0.085 -0.88673,-0.18091 -0.29972,-0.10456 -0.58526,-0.21279 -0.87078,-0.32096 -0.26425,-0.14365 -0.51253,-0.26957 -0.70761,-0.45579 l 0.66504,-1.07119 c 0.90801,0.63846 1.80539,0.95767 2.7205,0.95767 0.45048,0 0.82467,-0.0548 1.12262,-0.26247 0.27134,-0.16138 0.41144,-0.44337 0.41144,-0.77678 0,-0.30326 -0.16138,-0.52673 -0.46466,-0.69343 -0.3139,-0.11704 -0.80691,-0.29794 -1.49147,-0.44336 -0.46465,-0.12592 -0.86723,-0.25715 -1.19355,-0.3476 -0.33342,-0.12408 -0.59766,-0.26603 -0.81224,-0.40436 -0.20041,-0.15784 -0.3547,-0.31744 -0.43806,-0.53914 -0.11168,-0.19508 -0.1596,-0.43094 -0.1596,-0.71291 0,-0.37598 0.0745,-0.71826 0.22168,-1.02685 0.16138,-0.30504 0.37598,-0.54978 0.63136,-0.7289 0.25005,-0.23763 0.55509,-0.37774 0.9027,-0.48415 0.36,-0.10638 0.75725,-0.16849 1.17757,-0.16849 0.53204,0 1.0552,0.0993 1.56242,0.2749 0.50545,0.14897 0.95768,0.40788 1.35849,0.69698 l -0.66505,0.95588 c -0.71471,-0.54622 -1.48441,-0.83173 -2.28246,-0.83173 -0.40258,0 -0.74309,0.10288 -1.01265,0.28551 -0.29795,0.16494 -0.43096,0.42032 -0.43096,0.78034 0,0.1667 0.0282,0.27132 0.0834,0.37773 0.0496,0.10819 0.15961,0.21104 0.29262,0.26249 0.12416,0.0957 0.29086,0.1791 0.49125,0.24827 0.21637,0.0531 0.47352,0.0906 0.7892,0.1809 0.52139,0.13137 0.95413,0.23056 1.31946,0.37773 0.38307,0.12779 0.68101,0.25008 0.92397,0.42744 0.22879,0.14721 0.41676,0.36886 0.52851,0.58168 0.12415,0.227 0.17555,0.49835 0.17555,0.80516 0,0.36888 -0.0744,0.68633 -0.2128,0.95944 -0.13479,0.2749 -0.33343,0.54092 -0.60298,0.74662 -0.25716,0.18268 -0.57815,0.36179 -0.95768,0.48417 -0.38838,0.0675 -0.8087,0.1295 -1.23966,0.1295 l 0,0 z m 0,0"
   id="path41"
   inkscape:connector-curvature="0" />
<path
   d="m 99.837976,119.42831 c -0.20215,0.0727 -0.50011,0.20217 -0.84238,0.3458 -0.34406,0.085 -0.736,0.15431 -1.12971,0.15431 -0.25891,0 -0.48061,-0.0409 -0.69519,-0.0957 -0.2217,-0.0445 -0.41677,-0.15429 -0.57461,-0.30682 -0.16847,-0.11876 -0.2997,-0.3263 -0.40257,-0.52671 -0.0781,-0.2128 -0.1188,-0.48417 -0.1188,-0.77677 l 0,-4.63406 -1.01264,0 0,-1.23435 1.01264,0 0,-2.45625 1.56066,0 0,2.45625 1.644,0 0,1.23435 -1.644,0 0,4.16231 c 0,0.25893 0.0834,0.43097 0.22878,0.55509 0.13828,0.1295 0.3334,0.1543 0.56219,0.1543 0.20749,0 0.42385,-0.012 0.62425,-0.0711 0.19331,-0.0906 0.34583,-0.16494 0.43627,-0.21991 l 0.35116,1.25917 z m 0,0"
   id="path43"
   inkscape:connector-curvature="0" />
<path
   d="m 104.08899,119.9568 c -0.60298,0 -1.14388,-0.11703 -1.61563,-0.29086 -0.45755,-0.19331 -0.87433,-0.51251 -1.21481,-0.86014 -0.33342,-0.35469 -0.59058,-0.74309 -0.78388,-1.22014 -0.18623,-0.47175 -0.28375,-0.94347 -0.28375,-1.49858 0,-0.48592 0.0975,-0.99313 0.28375,-1.4578 0.19508,-0.46463 0.45223,-0.89381 0.78388,-1.25914 0.34048,-0.36356 0.75549,-0.64023 1.21481,-0.82291 0.47352,-0.21281 1.01265,-0.33163 1.61563,-0.33163 0.57814,0 1.096,0.12419 1.56065,0.33341 0.47352,0.20573 0.8814,0.47707 1.21305,0.81934 0.34051,0.34407 0.59058,0.76083 0.75727,1.23079 0.1809,0.43806 0.28554,0.93639 0.28554,1.41345 0,0.12065 -0.0149,0.24652 -0.0285,0.3494 0,0.0691 -0.015,0.1667 -0.0285,0.23587 l -5.95885,0 c 0.012,0.34758 0.0975,0.65264 0.2075,0.90267 0.14185,0.25894 0.31037,0.51965 0.49303,0.69699 0.21636,0.20394 0.46464,0.33162 0.72179,0.45577 0.26957,0.11179 0.53383,0.1347 0.82823,0.1347 0.19684,0 0.41144,-0.002 0.6136,-0.0498 0.1933,-0.0498 0.38308,-0.13827 0.54978,-0.2518 0.17913,-0.0639 0.33342,-0.20752 0.46465,-0.37244 0.12415,-0.12063 0.24119,-0.30149 0.31922,-0.44693 l 1.35138,0.40259 c -0.27488,0.54978 -0.7005,1.02685 -1.29639,1.38686 -0.603,0.34759 -1.28932,0.50012 -2.0537,0.50012 l 0,0 z m 2.25409,-4.42658 c -0.039,-0.30504 -0.11879,-0.59056 -0.25538,-0.88674 -0.11179,-0.26956 -0.26958,-0.48593 -0.46465,-0.69341 -0.20041,-0.1614 -0.43806,-0.31923 -0.72181,-0.39193 -0.25716,-0.12421 -0.54091,-0.18978 -0.81225,-0.18978 -0.2944,0 -0.58879,0.0657 -0.83885,0.18978 -0.27666,0.0727 -0.49835,0.23053 -0.69342,0.39193 -0.20041,0.20572 -0.36888,0.42208 -0.49481,0.69341 -0.12951,0.29618 -0.19153,0.5817 -0.22521,0.88674 l 4.50638,0 z m 0,0"
   id="path45"
   inkscape:connector-curvature="0" />
<path
   d="m 113.04676,113.6858 c -0.60475,0.0409 -1.14564,0.20573 -1.61738,0.45757 -0.45757,0.23586 -0.79807,0.62071 -1.01264,1.12439 l 0,4.56312 -1.56067,0 0,-7.47693 1.47021,0 0,1.65108 c 0.25005,-0.48413 0.59057,-0.9098 1.01444,-1.22015 0.41321,-0.32807 0.84592,-0.5143 1.30349,-0.5143 0.10288,0 0.17379,0 0.22701,0 0.0691,0 0.11704,0 0.17554,0 l 0,1.41521 z m 0,0"
   id="path47"
   inkscape:connector-curvature="0" />
<path
   d="m 120.45632,119.9568 c -0.57104,0 -1.09776,-0.11876 -1.57837,-0.31923 -0.4682,-0.19508 -0.87255,-0.49657 -1.21839,-0.84949 -0.33872,-0.33875 -0.58347,-0.72536 -0.76259,-1.20417 -0.18799,-0.49126 -0.27665,-0.963 -0.27665,-1.4986 0,-0.48592 0.0886,-0.99315 0.27665,-1.45777 0.17912,-0.46465 0.42211,-0.88675 0.76259,-1.23256 0.34584,-0.36179 0.75019,-0.63846 1.21839,-0.84596 0.48061,-0.20927 1.00733,-0.33342 1.57837,-0.33342 0.59588,0 1.13148,0.12419 1.58904,0.33342 0.46996,0.20573 0.87963,0.4824 1.21305,0.84596 0.32631,0.34581 0.58879,0.76968 0.77678,1.23256 0.17913,0.46642 0.26246,0.97185 0.26246,1.45777 0,0.5356 -0.0834,1.00556 -0.26246,1.4986 -0.18977,0.47881 -0.45047,0.86366 -0.77678,1.20417 -0.33342,0.35292 -0.74309,0.65441 -1.21305,0.84949 -0.45756,0.20039 -0.99316,0.31923 -1.58904,0.31923 l 0,0 z m -2.20087,-3.87149 c 0,0.36712 0.055,0.70761 0.14723,1.01266 0.12235,0.2997 0.28375,0.5888 0.47529,0.80338 0.20395,0.20217 0.45399,0.39548 0.71115,0.53913 0.26956,0.1136 0.55332,0.18445 0.86724,0.18445 0.31921,0 0.60829,-0.0691 0.86544,-0.18445 0.29263,-0.14365 0.5214,-0.34229 0.72357,-0.56573 0.19331,-0.21459 0.35294,-0.47708 0.46288,-0.80338 0.12593,-0.28375 0.18445,-0.61894 0.18445,-0.98606 0,-0.36001 -0.0585,-0.69519 -0.18445,-0.98604 -0.10999,-0.30504 -0.26957,-0.56928 -0.46288,-0.81048 -0.20038,-0.23763 -0.43094,-0.39193 -0.72357,-0.51962 -0.25715,-0.14544 -0.548,-0.18266 -0.86544,-0.18266 -0.29263,0 -0.57815,0.0372 -0.86724,0.18266 -0.25716,0.15076 -0.50011,0.31035 -0.69519,0.52672 -0.19686,0.24119 -0.35824,0.49834 -0.46465,0.80338 -0.1118,0.3139 -0.17381,0.64908 -0.17381,0.98604 l 0,0 z m 0,0"
   id="path49"
   inkscape:connector-curvature="0" />
<path
   d="m 125.79092,119.83088 0,-5.39489 -1.00556,0 0,-1.19708 1.00556,0 0,-1.0233 c 0,-0.90979 0.19509,-1.6387 0.63844,-2.15301 0.42564,-0.54797 0.99848,-0.80336 1.73446,-0.80336 0.28552,0 0.58347,0.048 0.89383,0.1383 0.28554,0.0567 0.57105,0.17378 0.84238,0.3192 l -0.34759,1.14213 c -0.13136,-0.0515 -0.29794,-0.12777 -0.49302,-0.18268 -0.2004,-0.0711 -0.39549,-0.1118 -0.57461,-0.1118 -0.36711,0 -0.64553,0.15963 -0.83884,0.43096 -0.20041,0.27667 -0.29263,0.67924 -0.29263,1.20597 l 0,1.03925 1.90826,0 0,1.19709 -1.90826,0 0,5.39487 -1.56242,0 z m 0,0"
   id="path51"
   inkscape:connector-curvature="0" />
<path
   d="m 140.80509,111.10363 -3.37845,0 0,8.72725 -1.56951,0 0,-8.72725 -3.40506,0 0,-1.41344 8.35302,0 0,1.41344 z m 0,0"
   id="path53"
   inkscape:connector-curvature="0" />
<path
   d="m 148.36538,119.83088 -1.58902,0 0,-4.18716 c 0,-0.6757 -0.12592,-1.19531 -0.36,-1.52695 -0.25184,-0.3263 -0.60475,-0.51254 -1.03927,-0.51254 -0.21813,0 -0.4469,0.048 -0.68101,0.13829 -0.20394,0.0976 -0.41853,0.19331 -0.61361,0.3742 -0.18621,0.16671 -0.36178,0.33343 -0.51963,0.52851 -0.14722,0.24119 -0.26602,0.47174 -0.3476,0.72 l 0,4.46739 -1.55888,0 0,-10.40495 1.55888,0 0,4.42836 c 0.28555,-0.52849 0.67924,-0.93108 1.15808,-1.20774 0.49656,-0.27134 1.0428,-0.43097 1.64577,-0.43097 0.42917,0 0.81048,0.0993 1.10311,0.27492 0.3263,0.14896 0.56041,0.39725 0.75017,0.66682 0.17913,0.25715 0.29793,0.56929 0.3742,0.92929 0.087,0.36712 0.11705,0.76437 0.11705,1.17936 l 0,4.56314 z m 0,0"
   id="path55"
   inkscape:connector-curvature="0" />
<path
   d="m 153.25661,119.9568 c -0.59942,0 -1.12437,-0.11703 -1.61738,-0.29086 -0.45579,-0.19331 -0.8708,-0.51251 -1.21307,-0.86014 -0.33341,-0.35469 -0.59056,-0.74309 -0.78387,-1.22014 -0.18622,-0.47175 -0.26781,-0.94347 -0.26781,-1.49858 0,-0.48592 0.0817,-0.99313 0.26781,-1.4578 0.19331,-0.46463 0.45046,-0.89381 0.78387,-1.25914 0.34227,-0.36356 0.75728,-0.64023 1.21307,-0.82291 0.49301,-0.21281 1.01796,-0.33163 1.61738,-0.33163 0.5817,0 1.10311,0.12419 1.56067,0.33341 0.47172,0.20573 0.8814,0.47707 1.21483,0.81934 0.33871,0.34407 0.60829,0.76083 0.77498,1.23079 0.18268,0.43806 0.26426,0.93639 0.26426,1.41345 0,0.12065 -0.012,0.24652 -0.0266,0.3494 0,0.0691 -0.0149,0.1667 -0.0266,0.23587 l -5.96063,0 c 0.0354,0.34758 0.0993,0.65264 0.21636,0.90267 0.1383,0.25894 0.30681,0.51965 0.5072,0.69699 0.19332,0.20394 0.44339,0.33162 0.71472,0.45577 0.25539,0.11179 0.5214,0.1347 0.81581,0.1347 0.21635,0 0.40966,-0.002 0.61183,-0.0498 0.19331,-0.0498 0.38131,-0.13827 0.54978,-0.2518 0.17912,-0.0639 0.33341,-0.20752 0.46465,-0.37244 0.14349,-0.12063 0.24117,-0.30149 0.33341,-0.44693 l 1.33718,0.40259 c -0.27487,0.54978 -0.7005,1.02685 -1.29639,1.38686 -0.58523,0.34759 -1.27335,0.50012 -2.05545,0.50012 l 0,0 z m 2.25587,-4.42658 c -0.0409,-0.30504 -0.11168,-0.59056 -0.24299,-0.88674 -0.12406,-0.26956 -0.28551,-0.48593 -0.47881,-0.69341 -0.20219,-0.1614 -0.43096,-0.31923 -0.72182,-0.39193 -0.25715,-0.12421 -0.53027,-0.18978 -0.81225,-0.18978 -0.29084,0 -0.58879,0.0657 -0.84061,0.18978 -0.26424,0.0727 -0.50012,0.23053 -0.69519,0.39193 -0.20041,0.20572 -0.36713,0.42208 -0.49127,0.69341 -0.11876,0.29618 -0.19331,0.5817 -0.22877,0.88674 l 4.51171,0 z m 0,0"
   id="path57"
   inkscape:connector-curvature="0" />
<path
   d="m 160.82579,119.9568 c -0.31215,0 -0.62429,-0.0354 -0.92754,-0.0834 -0.30858,-0.039 -0.61183,-0.085 -0.89559,-0.18091 -0.29085,-0.10456 -0.5959,-0.21279 -0.86722,-0.32096 -0.27491,-0.14365 -0.50544,-0.26957 -0.72003,-0.45579 l 0.66503,-1.07119 c 0.90803,0.63846 1.8249,0.95767 2.7347,0.95767 0.45576,0 0.82998,-0.0548 1.10841,-0.26247 0.28198,-0.16138 0.43095,-0.44337 0.43095,-0.77678 0,-0.30326 -0.16132,-0.52673 -0.48591,-0.69343 -0.31392,-0.11704 -0.80516,-0.29794 -1.4773,-0.44336 -0.45933,-0.12592 -0.86015,-0.25715 -1.18645,-0.3476 -0.33342,-0.12408 -0.61718,-0.26603 -0.81403,-0.40436 -0.19686,-0.15784 -0.35115,-0.31744 -0.454,-0.53914 -0.0903,-0.19508 -0.14545,-0.43094 -0.14545,-0.71291 0,-0.37598 0.0675,-0.71826 0.227,-1.02685 0.15966,-0.30504 0.37068,-0.54978 0.61187,-0.7289 0.26777,-0.23763 0.57459,-0.37774 0.9222,-0.48415 0.36177,-0.10638 0.73776,-0.16849 1.15807,-0.16849 0.54269,0 1.06939,0.0993 1.56242,0.2749 0.50543,0.14897 0.9701,0.40788 1.35848,0.69698 l -0.66506,0.95588 c -0.71471,-0.54622 -1.46311,-0.83173 -2.28245,-0.83173 -0.39727,0 -0.74132,0.10288 -1.01264,0.28551 -0.27843,0.16494 -0.42566,0.42032 -0.42566,0.78034 0,0.1667 0.023,0.27132 0.0763,0.37773 0.069,0.10819 0.15966,0.21104 0.29261,0.26249 0.14546,0.0957 0.31038,0.1791 0.509,0.24827 0.19864,0.0531 0.47707,0.0906 0.78741,0.1809 0.50899,0.13137 0.94882,0.23056 1.30527,0.37773 0.38308,0.12779 0.68458,0.25008 0.92399,0.42744 0.24829,0.14721 0.43626,0.36886 0.54622,0.58168 0.10639,0.227 0.17558,0.49835 0.17558,0.80516 0,0.36888 -0.0904,0.68633 -0.22877,0.95944 -0.1311,0.2749 -0.33342,0.54092 -0.58348,0.74662 -0.27667,0.18268 -0.59587,0.36179 -0.97717,0.48417 -0.39196,0.0675 -0.7963,0.1295 -1.24676,0.1295 l 0,0 z m 0,0"
   id="path59"
   inkscape:connector-curvature="0" />
<path
   d="m 166.91587,119.9568 c -0.3671,0 -0.70583,-0.0691 -1.0109,-0.15252 -0.29261,-0.14543 -0.56925,-0.32454 -0.78385,-0.51431 -0.22167,-0.1933 -0.39549,-0.47174 -0.51961,-0.74841 -0.15066,-0.28197 -0.20041,-0.59765 -0.20041,-0.92752 0,-0.34051 0.0622,-0.65441 0.22346,-0.93105 0.16131,-0.31393 0.37064,-0.56754 0.67034,-0.75021 0.26959,-0.23408 0.5959,-0.38128 0.98606,-0.51077 0.37953,-0.10118 0.79096,-0.15427 1.26802,-0.15427 0.35648,0 0.7023,0.0426 1.04103,0.0711 0.34051,0.0762 0.65265,0.17204 0.92931,0.2749 l 0,-0.54093 c 0,-0.52138 -0.15964,-0.96473 -0.46464,-1.27688 -0.31215,-0.30681 -0.78388,-0.48416 -1.35849,-0.48416 -0.40259,0 -0.81225,0.0904 -1.18644,0.24829 -0.39019,0.12592 -0.78567,0.36711 -1.18115,0.63846 l -0.49122,-0.98606 c 0.96298,-0.66326 1.9632,-0.99846 3.00246,-0.99846 1.02152,0 1.80538,0.29617 2.37289,0.80337 0.58527,0.53384 0.86723,1.27159 0.86723,2.24878 l 0,2.69211 c 0,0.16848 0.0355,0.31391 0.1118,0.40258 0.0498,0.0745 0.17911,0.0906 0.34763,0.0993 l 0,1.37089 c -0.16325,0.002 -0.30505,0.016 -0.43099,0.016 -0.13293,0.0149 -0.24649,0.0286 -0.3476,0.0286 -0.29084,-0.0214 -0.53381,-0.0691 -0.6934,-0.23586 -0.14724,-0.15786 -0.24652,-0.33342 -0.29264,-0.55512 l -0.0266,-0.48237 c -0.3476,0.45577 -0.78388,0.79629 -1.26802,1.01087 -0.48062,0.22168 -1.00024,0.34405 -1.56421,0.34405 l 0,0 z m 0.43096,-1.16872 c 0.38128,0 0.73596,-0.0372 1.06939,-0.18801 0.3405,-0.15074 0.61006,-0.34759 0.81047,-0.58346 0.19686,-0.18266 0.29263,-0.33339 0.29263,-0.54268 l 0,-0.98604 c -0.25716,-0.11705 -0.5622,-0.1809 -0.86724,-0.23587 -0.29084,-0.048 -0.57636,-0.0834 -0.86722,-0.0834 -0.56573,0 -1.02684,0.14542 -1.38685,0.37597 -0.3476,0.2217 -0.51964,0.53382 -0.51964,0.92755 0,0.39015 0.13651,0.70228 0.40259,0.9683 0.26781,0.23943 0.62072,0.34761 1.06587,0.34761 l 0,0 z m 0,0"
   id="path61"
   inkscape:connector-curvature="0" />
<path
   d="m 175.02769,119.9568 c -0.77854,0 -1.37441,-0.24297 -1.75039,-0.77501 -0.40258,-0.48772 -0.60297,-1.25916 -0.60297,-2.26472 l 0,-4.56314 1.56243,0 0,4.24569 c 0,1.35318 0.46284,2.02707 1.41344,2.02707 0.45047,0 0.8956,-0.15253 1.27867,-0.4274 0.3937,-0.27312 0.69873,-0.67571 0.92043,-1.16695 l 0,-4.67663 1.58903,0 0,5.60414 c 0,0.16848 0.0339,0.3139 0.0922,0.40258 0.0657,0.0745 0.17914,0.0904 0.3476,0.0993 l 0,1.37091 c -0.16838,0.002 -0.31568,0.016 -0.43982,0.016 -0.11168,0.0149 -0.23588,0.0286 -0.3192,0.0286 -0.603,-0.039 -0.93644,-0.31923 -0.98608,-0.79097 l -0.0567,-0.77678 c -0.33163,0.52848 -0.76968,0.95058 -1.2964,1.22192 -0.53027,0.30327 -1.10841,0.42563 -1.75219,0.42563 l 0,0 z m 0,0"
   id="path63"
   inkscape:connector-curvature="0" />
<path
   d="m 185.33688,113.6858 c -0.61008,0.0409 -1.14568,0.20573 -1.61742,0.45757 -0.45754,0.23586 -0.79805,0.62071 -1.01442,1.12439 l 0,4.56312 -1.56063,0 0,-7.47693 1.47019,0 0,1.65108 c 0.25005,-0.48413 0.59057,-0.9098 1.01265,-1.22015 0.40613,-0.32807 0.8495,-0.5143 1.30704,-0.5143 0.10278,0 0.17202,0 0.22702,0 0.0675,0 0.11705,0 0.17378,0 l 0,1.41521 z m 0,0"
   id="path65"
   inkscape:connector-curvature="0" />
<path
   d="m 186.29456,119.83088 0,-7.47693 1.56065,0 0,7.47693 -1.56065,0 z m 0,-8.70062 0,-1.70607 1.56065,0 0,1.70607 -1.56065,0 z m 0,0"
   id="path67"
   inkscape:connector-curvature="0" />
<path
   d="m 189.23674,120.06675 c 0.0674,0 0.15433,-0.0354 0.25714,-0.0816 0.10458,-0.0567 0.1738,-0.15249 0.1738,-0.32098 l 0,-1.6777 1.29462,0 0,1.94372 c 0,0.24475 -0.0673,0.45932 -0.18442,0.59765 -0.0977,0.16672 -0.22878,0.31746 -0.39017,0.38839 -0.16666,0.10458 -0.35291,0.18091 -0.54977,0.22169 -0.2004,0.0498 -0.40614,0.0816 -0.6012,0.0816 l 0,-1.15276 z m 0,0"
   id="path69"
   inkscape:connector-curvature="0" />
<path
   d="m 200.44683,119.87343 c -0.71473,0 -1.36558,-0.11169 -1.95615,-0.39723 -0.58523,-0.31746 -1.0889,-0.68989 -1.5092,-1.17228 -0.41677,-0.49125 -0.73777,-1.01797 -0.97364,-1.62271 -0.22344,-0.65798 -0.3476,-1.29109 -0.3476,-1.92598 0,-0.67571 0.13829,-1.31237 0.37597,-1.91713 0.24651,-0.62958 0.58524,-1.19353 1.01267,-1.67417 0.43627,-0.46995 0.93992,-0.84949 1.5234,-1.12969 0.57636,-0.26958 1.2219,-0.42741 1.9171,-0.42741 0.70586,0 1.35671,0.16847 1.9455,0.45576 0.58527,0.29264 1.096,0.7023 1.50568,1.16696 0.42741,0.50011 0.74484,1.03396 0.97541,1.67236 0.22698,0.62252 0.33519,1.23258 0.33519,1.85331 0,0.67745 -0.12237,1.32301 -0.36001,1.95081 -0.25362,0.63314 -0.57995,1.16161 -1.00734,1.65464 -0.42386,0.43804 -0.94704,0.81581 -1.52342,1.11727 -0.57991,0.28377 -1.22901,0.39549 -1.91356,0.39549 l 0,0 z m -3.14436,-5.11821 c 0,0.47882 0.0657,0.92219 0.23054,1.35847 0.13294,0.45754 0.35292,0.86546 0.61008,1.20596 0.27134,0.34759 0.60475,0.62602 0.98606,0.8211 0.39724,0.21992 0.84949,0.30858 1.34605,0.30858 0.49302,0 0.94526,-0.0957 1.33012,-0.33338 0.39548,-0.19686 0.72711,-0.4753 1.00376,-0.82114 0.25892,-0.36178 0.4558,-0.76434 0.62248,-1.20772 0.12792,-0.41324 0.20752,-0.87433 0.20752,-1.3301 0,-0.46996 -0.087,-0.94527 -0.23588,-1.38684 -0.15595,-0.454 -0.36888,-0.81936 -0.64908,-1.15986 -0.27312,-0.35116 -0.603,-0.62957 -0.98606,-0.81048 -0.38838,-0.2341 -0.81226,-0.32098 -1.29286,-0.32098 -0.49656,0 -0.95056,0.087 -1.34605,0.32098 -0.38662,0.19863 -0.72715,0.47885 -1.01266,0.81757 -0.25714,0.33341 -0.47705,0.72713 -0.61009,1.17937 -0.14542,0.45755 -0.20393,0.8956 -0.20393,1.35848 l 0,0 z m 0,0"
   id="path71"
   inkscape:connector-curvature="0" />
<path
   d="m 212.96926,119.83088 -1.56949,0 0,-4.18716 c 0,-0.68988 -0.1311,-1.21483 -0.34585,-1.52695 -0.2394,-0.3263 -0.55686,-0.51254 -0.96119,-0.51254 -0.25894,0 -0.4753,0.048 -0.69521,0.13829 -0.2536,0.0976 -0.46642,0.19331 -0.68277,0.3742 -0.20041,0.16671 -0.37243,0.33343 -0.54625,0.52851 -0.14544,0.24119 -0.25893,0.47174 -0.34582,0.72 l 0,4.46739 -1.54824,0 0,-7.47695 1.41523,0 0,1.50036 c 0.28553,-0.50722 0.69342,-0.90446 1.22724,-1.18114 0.52495,-0.28198 1.15453,-0.45757 1.81604,-0.45757 0.42029,0 0.78209,0.0993 1.09422,0.27492 0.28731,0.12592 0.51078,0.37065 0.69697,0.63843 0.16134,0.27667 0.29794,0.59768 0.34761,0.95768 0.0568,0.36712 0.0977,0.76437 0.0977,1.17936 l 0,4.56314 z m 0,0"
   id="path73"
   inkscape:connector-curvature="0" />
<path
   d="m 218.60184,119.42831 c -0.20042,0.0727 -0.51786,0.20217 -0.85838,0.3458 -0.34585,0.085 -0.71471,0.15431 -1.11018,0.15431 -0.27667,0 -0.50013,-0.0409 -0.69522,-0.0957 -0.24295,-0.0445 -0.41499,-0.15429 -0.59589,-0.30682 -0.14721,-0.11876 -0.29791,-0.3263 -0.3937,-0.52671 -0.0657,-0.2128 -0.10819,-0.48417 -0.10819,-0.77677 l 0,-4.63406 -1.01265,0 0,-1.23435 1.01265,0 0,-2.45625 1.54115,0 0,2.45625 1.66349,0 0,1.23435 -1.66349,0 0,4.16231 c 0,0.25893 0.0832,0.43097 0.25006,0.55509 0.11704,0.1295 0.33341,0.1543 0.55507,0.1543 0.2022,0 0.42922,-0.012 0.61187,-0.0711 0.21459,-0.0906 0.34582,-0.16494 0.45757,-0.21991 l 0.34582,1.25917 z m 0,0"
   id="path75"
   inkscape:connector-curvature="0" />
<path
   d="m 222.66837,119.9568 c -0.56926,0 -1.11727,-0.11876 -1.56952,-0.31923 -0.47883,-0.19508 -0.89381,-0.49657 -1.23254,-0.84949 -0.3334,-0.33875 -0.57639,-0.72536 -0.76083,-1.20417 -0.18444,-0.49126 -0.2802,-0.963 -0.2802,-1.4986 0,-0.48592 0.0972,-0.99315 0.2802,-1.45777 0.18444,-0.46465 0.42743,-0.88675 0.76083,-1.23256 0.33873,-0.36179 0.75547,-0.63846 1.23254,-0.84596 0.45225,-0.20927 0.99846,-0.33342 1.56952,-0.33342 0.59766,0 1.13148,0.12419 1.60855,0.33342 0.45223,0.20573 0.86012,0.4824 1.19353,0.84596 0.32811,0.34581 0.56929,0.76968 0.77679,1.23256 0.15964,0.46642 0.26246,0.97185 0.26246,1.45777 0,0.5356 -0.10469,1.00556 -0.26246,1.4986 -0.2075,0.47881 -0.45046,0.86366 -0.77679,1.20417 -0.33341,0.35292 -0.7413,0.65441 -1.19353,0.84949 -0.47707,0.20039 -1.01089,0.31923 -1.60855,0.31923 l 0,0 z m -2.17959,-3.87149 c 0,0.36712 0.016,0.70761 0.12421,1.01266 0.12421,0.2997 0.26425,0.5888 0.48416,0.80338 0.19507,0.20217 0.44866,0.39548 0.72178,0.53913 0.25006,0.1136 0.53559,0.18445 0.84772,0.18445 0.30504,0 0.59766,-0.0691 0.88673,-0.18445 0.27134,-0.14365 0.50014,-0.34229 0.72182,-0.56573 0.17381,-0.21459 0.35292,-0.47708 0.44513,-0.80338 0.12421,-0.28375 0.19153,-0.61894 0.19153,-0.98606 0,-0.36001 -0.0673,-0.69519 -0.19153,-0.98604 -0.0922,-0.30504 -0.27132,-0.56928 -0.44513,-0.81048 -0.22168,-0.23763 -0.45048,-0.39193 -0.72182,-0.51962 -0.28907,-0.14544 -0.58169,-0.18266 -0.88673,-0.18266 -0.29085,0 -0.57638,0.0372 -0.84772,0.18266 -0.27312,0.15076 -0.51962,0.31035 -0.69517,0.52672 -0.21994,0.24119 -0.36004,0.49834 -0.48419,0.80338 -0.12792,0.3139 -0.15063,0.64908 -0.15063,0.98604 l 0,0 z m 0,0"
   id="path77"
   inkscape:connector-curvature="0" />
<path
   d="m 227.57912,109.42595 1.5908,0 0,8.18811 c 0,0.27488 0.0462,0.48413 0.19685,0.66505 0.13487,0.16315 0.35471,0.20748 0.61183,0.20748 0.10458,0 0.21639,-0.0149 0.34584,-0.0372 0.15964,-0.0149 0.27844,-0.0603 0.42918,-0.11359 l 0.20927,1.2503 c -0.22169,0.10999 -0.48593,0.20394 -0.79096,0.25005 -0.31392,0.0531 -0.62959,0.0957 -0.86014,0.0957 -0.52671,0 -0.97186,-0.12421 -1.27691,-0.4487 -0.29084,-0.29262 -0.45754,-0.69696 -0.45754,-1.25738 l 0,-8.79994 z m 0,0"
   id="path79"
   inkscape:connector-curvature="0" />
<path
   d="m 235.03123,119.9568 c -0.61007,0 -1.11729,-0.11876 -1.60854,-0.31923 -0.45402,-0.19508 -0.85303,-0.49657 -1.19354,-0.84949 -0.3334,-0.33875 -0.61718,-0.72536 -0.77678,-1.20417 -0.19864,-0.49126 -0.26249,-0.963 -0.26249,-1.4986 0,-0.48592 0.0638,-0.99315 0.26249,-1.45777 0.16133,-0.46465 0.44338,-0.88675 0.77678,-1.23256 0.33873,-0.36179 0.73952,-0.63846 1.19354,-0.84596 0.49125,-0.20927 0.99847,-0.33342 1.60854,-0.33342 0.57637,0 1.09067,0.12419 1.56775,0.33342 0.49301,0.20573 0.89026,0.4824 1.22193,0.84596 0.33694,0.34581 0.58167,0.76968 0.7484,1.23256 0.20039,0.46642 0.30148,0.97185 0.30148,1.45777 0,0.5356 -0.10119,1.00556 -0.30148,1.4986 -0.16671,0.47881 -0.40969,0.86366 -0.7484,1.20417 -0.33343,0.35292 -0.72892,0.65441 -1.22193,0.84949 -0.47708,0.20039 -0.99138,0.31923 -1.56775,0.31923 l 0,0 z m -2.22039,-3.87149 c 0,0.36712 0.055,0.70761 0.15787,1.01266 0.094,0.2997 0.27136,0.5888 0.45403,0.80338 0.23585,0.20217 0.46466,0.39548 0.72178,0.53913 0.25008,0.1136 0.56928,0.18445 0.88673,0.18445 0.30506,0 0.59059,-0.0691 0.84772,-0.18445 0.26958,-0.14365 0.54091,-0.34229 0.72003,-0.56573 0.19864,-0.21459 0.35471,-0.47708 0.48594,-0.80338 0.0833,-0.28375 0.15258,-0.61894 0.15258,-0.98606 0,-0.36001 -0.0691,-0.69519 -0.15258,-0.98604 -0.1311,-0.30504 -0.2873,-0.56928 -0.48594,-0.81048 -0.18088,-0.23763 -0.45045,-0.39193 -0.72003,-0.51962 -0.25713,-0.14544 -0.54266,-0.18266 -0.84772,-0.18266 -0.31389,0 -0.61716,0.0372 -0.88673,0.18266 -0.25892,0.15076 -0.48237,0.31035 -0.6952,0.52672 -0.18265,0.24119 -0.36,0.49834 -0.47883,0.80338 -0.0977,0.3139 -0.15965,0.64908 -0.15965,0.98604 l 0,0 z m 0,0"
   id="path81"
   inkscape:connector-curvature="0" />
<path
   d="m 242.89835,119.87343 c -0.53385,0 -0.97188,-0.0691 -1.38863,-0.28906 -0.42211,-0.19686 -0.7821,-0.4753 -1.06764,-0.8211 -0.29262,-0.36181 -0.54445,-0.7768 -0.6952,-1.23257 -0.17735,-0.4682 -0.23587,-0.93107 -0.23587,-1.44361 0,-0.51962 0.0585,-1.04812 0.23587,-1.48615 0.15063,-0.49127 0.40258,-0.91514 0.6952,-1.26095 0.30504,-0.34052 0.67215,-0.61184 1.09423,-0.79274 0.43805,-0.21282 0.88318,-0.33164 1.41698,-0.33164 0.5959,0 1.11199,0.15961 1.56777,0.43096 0.45046,0.27488 0.83351,0.65262 1.12437,1.12437 l 0,-1.41699 1.38685,0 0,7.23042 c 0,0.55864 -0.11704,1.01797 -0.29085,1.44182 -0.22169,0.43627 -0.49834,0.78919 -0.86014,1.07117 -0.36709,0.28198 -0.76968,0.51075 -1.24849,0.66505 -0.49835,0.15785 -0.99848,0.2075 -1.58195,0.2075 -0.81935,0 -1.51987,-0.11876 -2.08029,-0.38838 -0.51428,-0.31922 -0.97895,-0.67571 -1.36202,-1.18113 l 0.88853,-0.82998 c 0.28375,0.39548 0.66504,0.69165 1.12261,0.91332 0.40965,0.1933 0.91687,0.31925 1.43117,0.31925 0.31923,0 0.63668,-0.048 0.91511,-0.13652 0.28552,-0.0957 0.53557,-0.20218 0.77678,-0.40435 0.21458,-0.16671 0.37065,-0.39548 0.5001,-0.69165 0.14365,-0.2802 0.20043,-0.60653 0.20043,-0.98604 l 0,-1.13678 c -0.27666,0.46109 -0.64378,0.8211 -1.07472,1.05342 -0.47708,0.27312 -0.9843,0.37244 -1.4702,0.37244 l 0,0 z m 0.47528,-1.24851 c 0.26599,0 0.48947,-0.0409 0.69341,-0.13829 0.23409,-0.0516 0.41324,-0.16848 0.62251,-0.31924 0.17556,-0.11876 0.35998,-0.2997 0.47349,-0.44514 0.14544,-0.20038 0.2483,-0.3742 0.28376,-0.5941 l 0,-1.94373 c -0.1862,-0.49124 -0.48059,-0.88672 -0.8956,-1.17935 -0.40259,-0.28375 -0.8211,-0.41498 -1.24852,-0.41498 -0.34583,0 -0.65972,0.048 -0.95767,0.20749 -0.26957,0.13829 -0.49125,0.35291 -0.69342,0.58169 -0.18089,0.25007 -0.33875,0.52849 -0.40438,0.83354 -0.11179,0.29085 -0.16665,0.59763 -0.16665,0.9027 0,0.34581 0.0622,0.67391 0.1933,0.95767 0.0849,0.32808 0.26246,0.58878 0.44514,0.80337 0.23588,0.21989 0.47175,0.40788 0.74841,0.56574 0.27136,0.1136 0.56927,0.18266 0.90626,0.18266 l 0,0 z m 0,0"
   id="path83"
   inkscape:connector-curvature="0" />
<path
   d="m 248.57165,119.83088 0,-7.47693 1.54114,0 0,7.47693 -1.54114,0 z m 0,-8.70062 0,-1.70607 1.54114,0 0,1.70607 -1.54114,0 z m 0,0"
   id="path85"
   inkscape:connector-curvature="0" />
<path
   d="m 255.25408,119.9568 c -0.58348,0 -1.12793,-0.11703 -1.59436,-0.29086 -0.4806,-0.19331 -0.8956,-0.51251 -1.23431,-0.86014 -0.33342,-0.35469 -0.59057,-0.74309 -0.76438,-1.22014 -0.20748,-0.47175 -0.30504,-0.94347 -0.30504,-1.49858 0,-0.48592 0.0974,-0.99313 0.30504,-1.4578 0.17381,-0.46463 0.43096,-0.89381 0.76438,-1.25914 0.33871,-0.36356 0.75549,-0.64023 1.23431,-0.82291 0.46823,-0.21281 1.01088,-0.33163 1.59436,-0.33163 0.58879,0 1.1031,0.12419 1.58195,0.33341 0.45221,0.20573 0.86013,0.47707 1.19529,0.81934 0.33874,0.34407 0.59058,0.76083 0.7768,1.23079 0.1738,0.43806 0.26247,0.93639 0.26247,1.41345 0,0.12065 -0.0149,0.24652 -0.0282,0.3494 0,0.0691 -0.0149,0.1667 -0.0282,0.23587 l -5.94644,0 c 0.002,0.34758 0.0849,0.65264 0.21457,0.90267 0.14187,0.25894 0.29266,0.51965 0.48063,0.69699 0.22701,0.20394 0.45577,0.33162 0.71294,0.45577 0.28907,0.11179 0.5551,0.1347 0.83175,0.1347 0.20218,0 0.42916,-0.002 0.61183,-0.0498 0.21283,-0.0498 0.38131,-0.13827 0.56753,-0.2518 0.15965,-0.0639 0.3334,-0.20752 0.44514,-0.37244 0.14363,-0.12063 0.2607,-0.30149 0.31922,-0.44693 l 1.36202,0.40259 c -0.28553,0.54978 -0.69342,1.02685 -1.30528,1.38686 -0.58345,0.34759 -1.26982,0.50012 -2.05367,0.50012 l 0,0 z m 2.27536,-4.42658 c -0.0408,-0.30504 -0.1311,-0.59056 -0.27668,-0.88674 -0.0922,-0.26956 -0.26954,-0.48593 -0.44512,-0.69341 -0.21991,-0.1614 -0.45046,-0.31923 -0.72003,-0.39193 -0.25893,-0.12421 -0.56041,-0.18978 -0.83353,-0.18978 -0.29086,0 -0.56929,0.0657 -0.81933,0.18978 -0.29795,0.0727 -0.51963,0.23053 -0.69521,0.39193 -0.2199,0.20572 -0.36712,0.42208 -0.51252,0.69341 -0.12937,0.29618 -0.17381,0.5817 -0.20751,0.88674 l 4.50993,0 z m 0,0"
   id="path87"
   inkscape:connector-curvature="0" />
<path
   d="m 262.82323,119.9568 c -0.31388,0 -0.62601,-0.0354 -0.92927,-0.0834 -0.29261,-0.039 -0.59058,-0.085 -0.87609,-0.18091 -0.32278,-0.10456 -0.6154,-0.21279 -0.88674,-0.32096 -0.25715,-0.14365 -0.48597,-0.26957 -0.72003,-0.45579 l 0.66504,-1.07119 c 0.92751,0.63846 1.82489,0.95767 2.72051,0.95767 0.47173,0 0.84595,-0.0548 1.12261,-0.26247 0.27134,-0.16138 0.43095,-0.44337 0.43095,-0.77678 0,-0.30326 -0.1809,-0.52673 -0.48417,-0.69343 -0.3139,-0.11704 -0.78563,-0.29794 -1.45779,-0.44336 -0.47884,-0.12592 -0.88141,-0.25715 -1.20773,-0.3476 -0.33341,-0.12408 -0.59765,-0.26603 -0.83176,-0.40436 -0.18267,-0.15784 -0.35469,-0.31744 -0.41676,-0.53914 -0.1118,-0.19508 -0.16666,-0.43094 -0.16666,-0.71291 0,-0.37598 0.0833,-0.71826 0.21812,-1.02685 0.1703,-0.30504 0.36533,-0.54978 0.64023,-0.7289 0.25183,-0.23763 0.55509,-0.37774 0.90269,-0.48415 0.36178,-0.10638 0.75727,-0.16849 1.17936,-0.16849 0.52139,0 1.06941,0.0993 1.54115,0.2749 0.52671,0.14897 0.95765,0.40788 1.36023,0.69698 l -0.66681,0.95588 c -0.71293,-0.54622 -1.48261,-0.83173 -2.26119,-0.83173 -0.40257,0 -0.74306,0.10288 -1.01263,0.28551 -0.29618,0.16494 -0.42917,0.42032 -0.42917,0.78034 0,0.1667 0.0282,0.27132 0.0832,0.37773 0.0495,0.10819 0.14023,0.21104 0.29082,0.26249 0.12064,0.0957 0.29264,0.1791 0.47354,0.24827 0.23587,0.0531 0.49124,0.0906 0.80516,0.1809 0.52672,0.13137 0.93638,0.23056 1.3035,0.37773 0.38129,0.12779 0.67923,0.25008 0.9417,0.42744 0.23056,0.14721 0.39902,0.36886 0.52848,0.58168 0.1242,0.227 0.19155,0.49835 0.19155,0.80516 0,0.36888 -0.0886,0.68633 -0.24829,0.95944 -0.1118,0.2749 -0.33341,0.54092 -0.58348,0.74662 -0.25714,0.18268 -0.57638,0.36179 -0.95767,0.48417 -0.38839,0.0675 -0.81223,0.1295 -1.26271,0.1295 l 0,0 z m 0,0"
   id="path89"
   inkscape:connector-curvature="0" />
<path
   d="m 277.2114,119.83088 -0.91158,-0.99845 c -0.4345,0.36887 -0.91331,0.64731 -1.38509,0.8601 -0.50541,0.15962 -1.04986,0.26249 -1.57482,0.26249 -0.49834,0 -0.94347,-0.0906 -1.36025,-0.20927 -0.40259,-0.17911 -0.7555,-0.3742 -1.04102,-0.61006 -0.29086,-0.28909 -0.54268,-0.60297 -0.69344,-0.9701 -0.18088,-0.36178 -0.23764,-0.75016 -0.23764,-1.11196 0,-0.34228 0.0514,-0.63668 0.12592,-0.91333 0.12421,-0.27311 0.2607,-0.51609 0.4292,-0.77856 0.18798,-0.21459 0.38128,-0.41677 0.58348,-0.63668 0.25535,-0.17555 0.48412,-0.38839 0.72001,-0.55509 -0.20041,-0.23764 -0.4079,-0.45934 -0.5285,-0.64022 -0.16495,-0.23232 -0.26957,-0.40789 -0.37419,-0.59588 -0.11169,-0.15961 -0.18621,-0.35292 -0.2075,-0.49836 -0.016,-0.18088 -0.0285,-0.33341 -0.0285,-0.5409 0,-0.34051 0.0285,-0.65265 0.18089,-0.93106 0.14542,-0.28376 0.30681,-0.52672 0.54089,-0.74843 0.25717,-0.19505 0.54269,-0.38127 0.87433,-0.4735 0.3281,-0.1242 0.68103,-0.19331 1.06941,-0.19331 0.33874,0 0.6739,0.0638 0.98602,0.1667 0.30505,0.0585 0.56929,0.20219 0.83178,0.40259 0.21636,0.16848 0.39904,0.38307 0.52848,0.69698 0.15963,0.25714 0.20926,0.56041 0.20926,0.90092 0,0.54976 -0.16836,1.0623 -0.52848,1.49857 -0.36711,0.38663 -0.83885,0.77147 -1.36024,1.11196 l 2.26116,2.40128 c 0.15965,-0.34228 0.28908,-0.70939 0.34584,-1.06052 0.10468,-0.37952 0.16665,-0.78921 0.16665,-1.2308 l 1.3035,0 c -0.0214,0.62426 -0.11519,1.23965 -0.23585,1.7912 -0.16667,0.52672 -0.36712,1.04635 -0.63846,1.49681 l 2.02708,2.10688 -2.07851,0 z m -3.70478,-1.09422 c 0.35469,0 0.70407,-0.0691 1.04102,-0.22169 0.32632,-0.1065 0.62427,-0.31922 0.9027,-0.55686 l -2.63717,-2.80032 c -0.38837,0.27488 -0.70049,0.56751 -0.97006,0.87255 -0.2217,0.33341 -0.34584,0.67215 -0.34584,1.03216 0,0.25715 0.055,0.48061 0.16668,0.69342 0.12061,0.20219 0.25007,0.36535 0.45754,0.52319 0.15965,0.15075 0.36003,0.22876 0.61009,0.32097 0.22701,0.094 0.47706,0.13652 0.77501,0.13652 l 0,0 z m -1.36734,-6.8793 c 0,0.094 0.005,0.21105 0.0231,0.31568 0.0355,0.0567 0.0885,0.16849 0.16494,0.29262 0.0691,0.085 0.15258,0.21459 0.29261,0.37421 0.14351,0.12593 0.27667,0.32632 0.48417,0.50012 0.42564,-0.27134 0.76438,-0.52851 1.04104,-0.7892 0.25006,-0.24297 0.40257,-0.51608 0.40257,-0.80693 0,-0.28375 -0.12421,-0.5551 -0.32632,-0.7218 -0.23589,-0.19507 -0.50013,-0.29085 -0.82645,-0.29085 -0.36709,0 -0.67391,0.0957 -0.92041,0.34759 -0.24476,0.19864 -0.3352,0.45579 -0.3352,0.77856 l 0,0 z m 0,0"
   id="path91"
   inkscape:connector-curvature="0" />
<path
   d="m 282.89536,114.67187 c 0,-0.59765 0.11518,-1.19532 0.33873,-1.77878 0.21281,-0.63493 0.52671,-1.16163 0.94881,-1.66353 0.41498,-0.46642 0.90269,-0.86013 1.48615,-1.13856 0.63669,-0.31745 1.32302,-0.45934 2.05723,-0.45934 0.92397,0 1.71495,0.19508 2.3534,0.61186 0.65263,0.40256 1.11729,0.92041 1.46664,1.60853 l -1.25916,0.81934 c -0.12791,-0.28199 -0.32629,-0.53558 -0.5001,-0.77678 -0.2199,-0.19508 -0.42207,-0.37951 -0.67215,-0.47352 -0.22878,-0.14544 -0.45756,-0.24828 -0.70052,-0.26601 -0.26247,-0.0462 -0.49302,-0.0798 -0.70761,-0.0798 -0.53381,0 -1.00378,0.087 -1.36914,0.32096 -0.39369,0.19865 -0.72533,0.47886 -1.01441,0.81759 -0.25891,0.3476 -0.45223,0.75728 -0.61184,1.20596 -0.1118,0.44516 -0.18266,0.869 -0.18266,1.30528 0,0.51431 0.0832,0.96476 0.20927,1.41699 0.17911,0.45578 0.38839,0.86369 0.66503,1.20597 0.28553,0.34582 0.62605,0.61718 1.01265,0.79096 0.39726,0.21991 0.84061,0.30858 1.30528,0.30858 0.2412,0 0.49125,-0.008 0.74843,-0.0603 0.29082,-0.0691 0.52669,-0.17912 0.75016,-0.29617 0.24827,-0.15252 0.45755,-0.33519 0.63666,-0.53557 0.21459,-0.1951 0.36003,-0.48416 0.51254,-0.77679 l 1.33365,0.75019 c -0.15788,0.3866 -0.40967,0.72887 -0.69522,1.01085 -0.27663,0.29087 -0.59765,0.57461 -0.95766,0.7484 -0.3671,0.18977 -0.76437,0.35471 -1.17936,0.45758 -0.42206,0.087 -0.79981,0.12592 -1.19353,0.12592 -0.71471,0 -1.35315,-0.12592 -1.95615,-0.41678 -0.56927,-0.31566 -1.08892,-0.69343 -1.48616,-1.20596 -0.42209,-0.49481 -0.74308,-1.04635 -0.99846,-1.65288 -0.21814,-0.61538 -0.3405,-1.27511 -0.3405,-1.92421 l 0,0 z m 0,0"
   id="path93"
   inkscape:connector-curvature="0" />
<path
   d="m 292.61396,109.42595 1.60677,0 0,8.18811 c 0,0.27488 0.069,0.48413 0.18265,0.66505 0.15966,0.16315 0.35294,0.20748 0.61719,0.20748 0.0977,0 0.22877,-0.0149 0.3405,-0.0372 0.15963,-0.0149 0.31745,-0.0603 0.42917,-0.11359 l 0.25007,1.2503 c -0.26247,0.10999 -0.52674,0.20394 -0.83354,0.25005 -0.31213,0.0531 -0.58879,0.0957 -0.85835,0.0957 -0.52849,0 -0.97186,-0.12421 -1.2769,-0.4487 -0.29262,-0.29262 -0.45756,-0.69696 -0.45756,-1.25738 l 0,-8.79994 z m 0,0"
   id="path95"
   inkscape:connector-curvature="0" />
<path
   d="m 298.75191,119.9568 c -0.36708,0 -0.70761,-0.0691 -1.01262,-0.15252 -0.31036,-0.14543 -0.5888,-0.32454 -0.80338,-0.51431 -0.20219,-0.1933 -0.39549,-0.47174 -0.53028,-0.74841 -0.12235,-0.28197 -0.19152,-0.59765 -0.19152,-0.92752 0,-0.34051 0.0832,-0.65441 0.20926,-0.93105 0.17911,-0.31393 0.38839,-0.56754 0.67571,-0.75021 0.30148,-0.23408 0.62779,-0.38128 1.0144,-0.51077 0.37066,-0.10118 0.77323,-0.15427 1.25029,-0.15427 0.36003,0 0.70584,0.0426 1.04103,0.0711 0.33874,0.0762 0.65088,0.17204 0.92932,0.2749 l 0,-0.54093 c 0,-0.52138 -0.14024,-0.96473 -0.44516,-1.27688 -0.32807,-0.30681 -0.78388,-0.48416 -1.38152,-0.48416 -0.38132,0 -0.7892,0.0904 -1.18468,0.24829 -0.38839,0.12592 -0.7821,0.36711 -1.17938,0.63846 l -0.4735,-0.98606 c 0.94349,-0.66326 1.94372,-0.99846 2.98474,-0.99846 1.01976,0 1.82312,0.29617 2.3729,0.80337 0.60121,0.53384 0.88852,1.27159 0.88852,2.24878 l 0,2.69211 c 0,0.16848 0.0339,0.31391 0.0691,0.40258 0.069,0.0745 0.20041,0.0906 0.35117,0.0993 l 0,1.37089 c -0.12937,0.002 -0.28909,0.016 -0.39549,0.016 -0.1508,0.0149 -0.28198,0.0286 -0.34584,0.0286 -0.31391,-0.0214 -0.55508,-0.0691 -0.69344,-0.23586 -0.16666,-0.15786 -0.28374,-0.33342 -0.31389,-0.55512 l -0.006,-0.48237 c -0.34583,0.45577 -0.78209,0.79629 -1.28931,1.01087 -0.45577,0.22168 -0.99669,0.34405 -1.53938,0.34405 l 0,0 z m 0.42212,-1.16872 c 0.34935,0 0.70229,-0.0372 1.0357,-0.18801 0.35469,-0.15074 0.65084,-0.34759 0.83175,-0.58346 0.21106,-0.18266 0.29264,-0.33339 0.29264,-0.54268 l 0,-0.98604 c -0.25896,-0.11705 -0.54272,-0.1809 -0.84774,-0.23587 -0.29262,-0.048 -0.61538,-0.0834 -0.8885,-0.0834 -0.54976,0 -1.02685,0.14542 -1.38684,0.37597 -0.34584,0.2217 -0.50012,0.53382 -0.50012,0.92755 0,0.39015 0.10638,0.70228 0.40256,0.9683 0.27135,0.23943 0.62426,0.34761 1.06055,0.34761 l 0,0 z m 0,0"
   id="path97"
   inkscape:connector-curvature="0" />
<path
   d="m 307.34084,119.9568 c -0.31213,0 -0.62425,-0.0354 -0.9293,-0.0834 -0.30326,-0.039 -0.62781,-0.085 -0.9151,-0.18091 -0.29086,-0.10456 -0.57638,-0.21279 -0.84772,-0.32096 -0.28552,-0.14365 -0.52672,-0.26957 -0.7218,-0.45579 l 0.66681,-1.07119 c 0.88851,0.63846 1.82313,0.95767 2.72051,0.95767 0.47175,0 0.84594,-0.0548 1.1226,-0.26247 0.27134,-0.16138 0.42917,-0.44337 0.42917,-0.77678 0,-0.30326 -0.1791,-0.52673 -0.48413,-0.69343 -0.31215,-0.11704 -0.82468,-0.29794 -1.4986,-0.44336 -0.44513,-0.12592 -0.84062,-0.25715 -1.16517,-0.3476 -0.33342,-0.12408 -0.63667,-0.26603 -0.83352,-0.40436 -0.18269,-0.15784 -0.35293,-0.31744 -0.45755,-0.53914 -0.0709,-0.19508 -0.1242,-0.43094 -0.1242,-0.71291 0,-0.37598 0.0567,-0.71826 0.20751,-1.02685 0.18089,-0.30504 0.37419,-0.54978 0.61184,-0.7289 0.28552,-0.23763 0.59587,-0.37774 0.94169,-0.48415 0.36003,-0.10638 0.73601,-0.16849 1.14035,-0.16849 0.56041,0 1.06941,0.0993 1.58017,0.2749 0.48593,0.14897 0.95765,0.40788 1.362,0.69698 l -0.66681,0.95588 c -0.71471,-0.54622 -1.48438,-0.83173 -2.30198,-0.83173 -0.37596,0 -0.73419,0.10288 -1.01263,0.28551 -0.27844,0.16494 -0.41678,0.42032 -0.41678,0.78034 0,0.1667 0.0177,0.27132 0.071,0.37773 0.0675,0.10819 0.1791,0.21104 0.29262,0.26249 0.14363,0.0957 0.32631,0.1791 0.51075,0.24827 0.19331,0.0531 0.49123,0.0906 0.80338,0.1809 0.48595,0.13137 0.9364,0.23056 1.30529,0.37773 0.38128,0.12779 0.67922,0.25008 0.90269,0.42744 0.26778,0.14721 0.43627,0.36886 0.56751,0.58168 0.0833,0.227 0.15256,0.49835 0.15256,0.80516 0,0.36888 -0.0849,0.68633 -0.20752,0.95944 -0.15256,0.2749 -0.33338,0.54092 -0.58523,0.74662 -0.29617,0.18268 -0.61537,0.36179 -0.99666,0.48417 -0.37599,0.0675 -0.77147,0.1295 -1.22372,0.1295 l 0,0 z m 0,0"
   id="path99"
   inkscape:connector-curvature="0" />
<path
   d="m 314.22367,119.9568 c -0.31212,0 -0.62424,-0.0354 -0.9293,-0.0834 -0.29085,-0.039 -0.61716,-0.085 -0.9151,-0.18091 -0.29086,-0.10456 -0.57639,-0.21279 -0.84772,-0.32096 -0.25893,-0.14365 -0.52671,-0.26957 -0.72181,-0.45579 l 0.66683,-1.07119 c 0.88849,0.63846 1.82311,0.95767 2.71872,0.95767 0.47174,0 0.84772,-0.0548 1.12439,-0.26247 0.26955,-0.16138 0.42918,-0.44337 0.42918,-0.77678 0,-0.30326 -0.17914,-0.52673 -0.48416,-0.69343 -0.31212,-0.11704 -0.82465,-0.29794 -1.49859,-0.44336 -0.43805,-0.12592 -0.84063,-0.25715 -1.16518,-0.3476 -0.33339,-0.12408 -0.61713,-0.26603 -0.83353,-0.40436 -0.18088,-0.15784 -0.3529,-0.31744 -0.45753,-0.53914 -0.0707,-0.19508 -0.12408,-0.43094 -0.12408,-0.71291 0,-0.37598 0.0817,-0.71826 0.20749,-1.02685 0.1809,-0.30504 0.3742,-0.54978 0.61184,-0.7289 0.28908,-0.23763 0.59588,-0.37774 0.94172,-0.48415 0.36003,-0.10638 0.75551,-0.16849 1.14034,-0.16849 0.55863,0 1.06762,0.0993 1.58017,0.2749 0.4877,0.14897 0.95766,0.40788 1.36201,0.69698 l -0.66684,0.95588 c -0.71468,-0.54622 -1.48438,-0.83173 -2.29485,-0.83173 -0.37065,0 -0.70938,0.10288 -1.01976,0.28551 -0.27841,0.16494 -0.39014,0.42032 -0.39014,0.78034 0,0.1667 0.0214,0.27132 0.0408,0.37773 0.069,0.10819 0.18089,0.21104 0.3334,0.26249 0.10651,0.0957 0.29086,0.1791 0.47353,0.24827 0.227,0.0531 0.49126,0.0906 0.80337,0.1809 0.48594,0.13137 0.93641,0.23056 1.3035,0.37773 0.38308,0.12779 0.68101,0.25008 0.90447,0.42744 0.2678,0.14721 0.43628,0.36886 0.56574,0.58168 0.11169,0.227 0.15434,0.49835 0.15434,0.80516 0,0.36888 -0.0515,0.68633 -0.2075,0.95944 -0.15257,0.2749 -0.3334,0.54092 -0.58347,0.74662 -0.29617,0.18268 -0.61717,0.36179 -0.99314,0.48417 -0.35469,0.0675 -0.77856,0.1295 -1.22901,0.1295 l 0,0 z m 0,0"
   id="path101"
   inkscape:connector-curvature="0" />
<path
   d="m 318.29732,119.83088 0,-7.47693 1.58193,0 0,7.47693 -1.58193,0 z m 0,-8.70062 0,-1.70607 1.58193,0 0,1.70607 -1.58193,0 z m 0,0"
   id="path103"
   inkscape:connector-curvature="0" />
<path
   d="m 322.05707,114.43599 -0.98603,0 0,-1.19708 0.98603,0 0,-1.0233 c 0,-0.35825 0.0622,-0.71649 0.19332,-1.08358 0.1311,-0.36001 0.30502,-0.67216 0.52849,-0.97009 0.2678,-0.26959 0.5746,-0.47884 0.94172,-0.66683 0.36002,-0.13651 0.75016,-0.23587 1.2485,-0.23587 0.54093,0 0.99316,0.0993 1.41524,0.23587 0.43804,0.18799 0.81224,0.36177 1.12438,0.59765 l -0.63846,1.13856 c -0.24119,-0.1596 -0.49833,-0.3263 -0.80337,-0.41498 -0.31214,-0.14543 -0.65264,-0.22169 -1.01264,-0.22169 -0.23767,0 -0.47885,0.0603 -0.63845,0.16494 -0.18445,0.0675 -0.30504,0.188 -0.42919,0.34584 -0.12937,0.12592 -0.21637,0.32808 -0.26246,0.50011 -0.0549,0.2075 -0.0834,0.38305 -0.0834,0.59589 l 0,1.03925 3.92646,0 0,6.59198 -1.58193,0 0,-5.39488 -2.34453,0 0,5.39488 -1.58192,0 0,-5.39668 z m 0,0"
   id="path105"
   inkscape:connector-curvature="0" />
<path
   d="m 328.6207,116.05871 c 0,-0.5072 0.0903,-1.01974 0.29616,-1.45777 0.16131,-0.47175 0.40434,-0.88674 0.7555,-1.23079 0.33339,-0.36357 0.74486,-0.64022 1.2432,-0.8229 0.47705,-0.21282 1.01264,-0.33164 1.59612,-0.33164 0.76259,0 1.42232,0.18621 2.00756,0.51254 0.54622,0.3334 0.96831,0.79096 1.22369,1.33188 l -1.52517,0.5143 c -0.1667,-0.30681 -0.40614,-0.57638 -0.74488,-0.72003 -0.29616,-0.20217 -0.63488,-0.26425 -1.0162,-0.26425 -0.31212,0 -0.59765,0.0372 -0.8477,0.18267 -0.25893,0.12778 -0.52672,0.28197 -0.7218,0.51963 -0.19155,0.2199 -0.36002,0.47884 -0.48417,0.78208 -0.071,0.29086 -0.12592,0.62604 -0.12592,0.98606 0,0.36711 0.0621,0.7076 0.15434,1.01264 0.12407,0.3281 0.27135,0.58882 0.48415,0.8034 0.19507,0.22345 0.46466,0.42206 0.72179,0.56573 0.26959,0.11359 0.55511,0.18444 0.84774,0.18444 0.20039,0 0.37421,-0.0266 0.59588,-0.0834 0.17381,-0.0691 0.37421,-0.11181 0.50012,-0.20749 0.17913,-0.1047 0.29793,-0.22879 0.42917,-0.31925 0.12248,-0.14721 0.18091,-0.26426 0.23588,-0.43095 l 1.58194,0.48417 c -0.27491,0.54977 -0.67392,1.02684 -1.28933,1.38684 -0.56929,0.3476 -1.24319,0.50013 -2.02705,0.50013 -0.58347,0 -1.12084,-0.11877 -1.59614,-0.31924 -0.47882,-0.19507 -0.89382,-0.49658 -1.23255,-0.84948 -0.33341,-0.34051 -0.59057,-0.75373 -0.76615,-1.2308 -0.20572,-0.47174 -0.29616,-0.94525 -0.29616,-1.49857 l 0,0 z m 0,0"
   id="path107"
   inkscape:connector-curvature="0" />
<path
   d="m 338.80393,119.9568 c -0.36711,0 -0.70761,-0.0691 -1.01265,-0.15252 -0.29085,-0.14543 -0.54977,-0.32454 -0.80338,-0.51431 -0.20216,-0.1933 -0.38129,-0.47174 -0.50011,-0.74841 -0.15258,-0.28197 -0.22171,-0.59765 -0.22171,-0.92752 0,-0.34051 0.0832,-0.65441 0.25008,-0.93105 0.13829,-0.31393 0.38841,-0.56754 0.66506,-0.75021 0.27134,-0.23408 0.59764,-0.38128 0.98604,-0.51077 0.3813,-0.10118 0.81226,-0.15427 1.2503,-0.15427 0.36002,0 0.70583,0.0426 1.04102,0.0711 0.33872,0.0762 0.65086,0.17204 0.97009,0.2749 l 0,-0.54093 c 0,-0.52138 -0.18091,-0.96473 -0.48593,-1.27688 -0.31215,-0.30681 -0.7821,-0.48416 -1.36026,-0.48416 -0.40257,0 -0.81047,0.0904 -1.20595,0.24829 -0.38308,0.12592 -0.74841,0.36711 -1.14033,0.63846 l -0.51254,-0.98606 c 0.94348,-0.66326 1.96146,-0.99846 2.99006,-0.99846 1.04635,0 1.81781,0.29617 2.4066,0.80337 0.5622,0.53384 0.84771,1.27159 0.84771,2.24878 l 0,2.69211 c 0,0.16848 0.0355,0.31391 0.11179,0.40258 0.069,0.0745 0.16134,0.0906 0.34582,0.0993 l 0,1.37089 c -0.16493,0.002 -0.28375,0.016 -0.42918,0.016 -0.14886,0.0149 -0.24296,0.0286 -0.34582,0.0286 -0.29084,-0.0214 -0.51431,-0.0691 -0.69522,-0.23586 -0.1632,-0.15786 -0.24295,-0.33342 -0.29082,-0.55512 l -0.0286,-0.48237 c -0.34582,0.45577 -0.7821,0.79629 -1.2485,1.01087 -0.50013,0.22168 -1.01267,0.34405 -1.58371,0.34405 l 0,0 z m 0.42919,-1.16872 c 0.38128,0 0.73421,-0.0372 1.0694,-0.18801 0.33872,-0.15074 0.61185,-0.34759 0.79452,-0.58346 0.21102,-0.18266 0.32985,-0.33339 0.32985,-0.54268 l 0,-0.98604 c -0.29794,-0.11705 -0.58169,-0.1809 -0.88851,-0.23587 -0.29084,-0.048 -0.57458,-0.0834 -0.8477,-0.0834 -0.5888,0 -1.02684,0.14542 -1.38687,0.37597 -0.34581,0.2217 -0.5409,0.53382 -0.5409,0.92755 0,0.39015 0.14545,0.70228 0.40256,0.9683 0.27135,0.23943 0.62429,0.34761 1.06765,0.34761 l 0,0 z m 0,0"
   id="path109"
   inkscape:connector-curvature="0" />
<path
   d="m 348.70341,119.42831 c -0.24296,0.0727 -0.51959,0.20217 -0.86013,0.3458 -0.34581,0.085 -0.73418,0.15431 -1.14916,0.15431 -0.23766,0 -0.45935,-0.0409 -0.69524,-0.0957 -0.20038,-0.0445 -0.38837,-0.15429 -0.55508,-0.30682 -0.18445,-0.11876 -0.29796,-0.3263 -0.40258,-0.52671 -0.0972,-0.2128 -0.11876,-0.48417 -0.11876,-0.77677 l 0,-4.63406 -1.03217,0 0,-1.23435 1.03217,0 0,-2.45625 1.56243,0 0,2.45625 1.62449,0 0,1.23435 -1.62449,0 0,4.16231 c 0,0.25893 0.0832,0.43097 0.20928,0.55509 0.15787,0.1295 0.3334,0.1543 0.59586,0.1543 0.19332,0 0.40614,-0.012 0.61009,-0.0711 0.17559,-0.0906 0.34761,-0.16494 0.45754,-0.21991 l 0.34584,1.25917 z m 0,0"
   id="path111"
   inkscape:connector-curvature="0" />
<path
   d="m 349.50149,119.83088 0,-7.47693 1.58194,0 0,7.47693 -1.58194,0 z m 0,-8.70062 0,-1.70607 1.58194,0 0,1.70607 -1.58194,0 z m 0,0"
   id="path113"
   inkscape:connector-curvature="0" />
<path
   d="m 356.16796,119.9568 c -0.56929,0 -1.11551,-0.11876 -1.56773,-0.31923 -0.47886,-0.19508 -0.89561,-0.49657 -1.23434,-0.84949 -0.33343,-0.33875 -0.5764,-0.72536 -0.77679,-1.20417 -0.16839,-0.49126 -0.26425,-0.963 -0.26425,-1.4986 0,-0.48592 0.0976,-0.99315 0.26425,-1.45777 0.19864,-0.46465 0.44336,-0.88675 0.77679,-1.23256 0.33873,-0.36179 0.75727,-0.63846 1.23434,-0.84596 0.45222,-0.20927 0.99844,-0.33342 1.56773,-0.33342 0.57636,0 1.13146,0.12419 1.56952,0.33342 0.49126,0.20573 0.90092,0.4824 1.23435,0.84596 0.3263,0.34581 0.56749,0.76968 0.77677,1.23256 0.16134,0.46642 0.26246,0.97185 0.26246,1.45777 0,0.5356 -0.10277,1.00556 -0.26246,1.4986 -0.2075,0.47881 -0.45047,0.86366 -0.77677,1.20417 -0.33343,0.35292 -0.74309,0.65441 -1.23435,0.84949 -0.43806,0.20039 -0.99316,0.31923 -1.56952,0.31923 l 0,0 z m -2.2186,-3.87149 c 0,0.36712 0.0548,0.70761 0.16665,1.01266 0.12248,0.2997 0.26249,0.5888 0.48418,0.80338 0.1933,0.20217 0.42385,0.39548 0.71114,0.53913 0.25894,0.1136 0.54447,0.18445 0.85481,0.18445 0.30682,0 0.59058,-0.0691 0.86902,-0.18445 0.28908,-0.14365 0.51784,-0.34229 0.70051,-0.56573 0.21459,-0.21459 0.3547,-0.47708 0.48417,-0.80338 0.1242,-0.28375 0.1933,-0.61894 0.1933,-0.98606 0,-0.36001 -0.0691,-0.69519 -0.1933,-0.98604 -0.12938,-0.30504 -0.26958,-0.56928 -0.48417,-0.81048 -0.18267,-0.23763 -0.40966,-0.39193 -0.70051,-0.51962 -0.27844,-0.14544 -0.5622,-0.18266 -0.86902,-0.18266 -0.29083,0 -0.57638,0.0372 -0.85481,0.18266 -0.28729,0.15076 -0.51073,0.31035 -0.69341,0.52672 -0.21281,0.24119 -0.35647,0.49834 -0.47884,0.80338 -0.12792,0.3139 -0.18976,0.64908 -0.18976,0.98604 l 0,0 z m 0,0"
   id="path115"
   inkscape:connector-curvature="0" />
<path
   d="m 367.79484,119.83088 -1.5926,0 0,-4.18716 c 0,-0.68988 -0.1311,-1.21483 -0.3476,-1.52695 -0.2004,-0.3263 -0.5214,-0.51254 -0.95767,-0.51254 -0.23765,0 -0.47885,0.048 -0.69343,0.13829 -0.23762,0.0976 -0.47174,0.19331 -0.66683,0.3742 -0.21991,0.16671 -0.38838,0.33343 -0.5675,0.52851 -0.12421,0.24119 -0.25714,0.47174 -0.34584,0.72 l 0,4.46739 -1.54113,0 0,-7.47695 1.41524,0 0,1.50036 c 0.28551,-0.50722 0.70761,-0.90446 1.22191,-1.18114 0.56041,-0.28198 1.15629,-0.45757 1.81603,-0.45757 0.45045,0 0.81756,0.0993 1.09599,0.27492 0.28375,0.12592 0.50723,0.37065 0.69344,0.63843 0.16132,0.27667 0.29973,0.59768 0.37597,0.95768 0.0691,0.36712 0.0958,0.76437 0.0958,1.17936 l 0,4.56314 z m 0,0"
   id="path117"
   inkscape:connector-curvature="0" />
<path
   d="m 372.04937,119.9568 c -0.3139,0 -0.62603,-0.0354 -0.92929,-0.0834 -0.29262,-0.039 -0.59058,-0.085 -0.91336,-0.18091 -0.29439,-0.10456 -0.57815,-0.21279 -0.84948,-0.32096 -0.25715,-0.14365 -0.52494,-0.26957 -0.72003,-0.45579 l 0.66505,-1.07119 c 0.90626,0.63846 1.8249,0.95767 2.72052,0.95767 0.47173,0 0.84592,-0.0548 1.1226,-0.26247 0.27134,-0.16138 0.43096,-0.44337 0.43096,-0.77678 0,-0.30326 -0.1809,-0.52673 -0.48417,-0.69343 -0.31391,-0.11704 -0.80515,-0.29794 -1.49502,-0.44336 -0.44159,-0.12592 -0.84597,-0.25715 -1.17051,-0.3476 -0.33341,-0.12408 -0.59765,-0.26603 -0.83176,-0.40436 -0.18267,-0.15784 -0.35469,-0.31744 -0.42032,-0.53914 -0.10818,-0.19508 -0.1632,-0.43094 -0.1632,-0.71291 0,-0.37598 0.0832,-0.71826 0.20748,-1.02685 0.1809,-0.30504 0.37599,-0.54978 0.64732,-0.7289 0.25537,-0.23763 0.55865,-0.37774 0.90624,-0.48415 0.36178,-0.10638 0.75727,-0.16849 1.17404,-0.16849 0.52672,0 1.03572,0.0993 1.54647,0.2749 0.52495,0.14897 0.95766,0.40788 1.36024,0.69698 l -0.66683,0.95588 c -0.71291,-0.54622 -1.4844,-0.83173 -2.26117,-0.83173 -0.40257,0 -0.74307,0.10288 -1.02683,0.28551 -0.30325,0.16494 -0.415,0.42032 -0.415,0.78034 0,0.1667 0.0286,0.27132 0.0798,0.37773 0.0339,0.10819 0.14349,0.21104 0.29439,0.26249 0.10649,0.0957 0.29263,0.1791 0.47352,0.24827 0.23588,0.0531 0.49126,0.0906 0.80517,0.1809 0.5143,0.13137 0.93638,0.23056 1.30349,0.37773 0.3813,0.12779 0.67923,0.25008 0.92575,0.42744 0.24652,0.14721 0.41145,0.36886 0.54447,0.58168 0.1242,0.227 0.15257,0.49835 0.15257,0.80516 0,0.36888 -0.048,0.68633 -0.20751,0.95944 -0.12593,0.2749 -0.33341,0.54092 -0.58346,0.74662 -0.25715,0.18268 -0.59769,0.36179 -0.95768,0.48417 -0.39193,0.0675 -0.81405,0.1295 -1.26449,0.1295 l 0,0 z m 0,0"
   id="path119"
   inkscape:connector-curvature="0" />
<g
   id="g121"
   transform="matrix(1.7734681,0,0,1.7734681,20,9.9999924)">
	<path
   d="m 168.586,67.949 c 7.214,9.187 18.42,15.098 30.979,15.098 21.711,0 39.375,-17.663 39.375,-39.374 0,-21.712 -17.664,-39.376 -39.375,-39.376 -16.499,0 -30.661,10.201 -36.51,24.627 l -4.6,0 C 164.518,12.079 180.658,0 199.566,0 c 24.081,0 43.672,19.591 43.672,43.673 0,24.08 -19.591,43.671 -43.672,43.671 -15.104,0 -28.44,-7.707 -36.286,-19.394"
   id="path123"
   inkscape:connector-curvature="0" />
</g>
</svg>